<?xml version="1.0" encoding="utf-8" standalone="no"?>
<!DOCTYPE svg PUBLIC "-//W3C//DTD SVG 1.1//EN"
  "http://www.w3.org/Graphics/SVG/1.1/DTD/svg11.dtd">
<svg xmlns:xlink="http://www.w3.org/1999/xlink" width="720pt" height="216pt" viewBox="0 0 720 216" xmlns="http://www.w3.org/2000/svg" version="1.1">
 <metadata>
  <rdf:RDF xmlns:dc="http://purl.org/dc/elements/1.1/" xmlns:cc="http://creativecommons.org/ns#" xmlns:rdf="http://www.w3.org/1999/02/22-rdf-syntax-ns#">
   <cc:Work>
    <dc:type rdf:resource="http://purl.org/dc/dcmitype/StillImage"/>
    <dc:date>2026-02-24T11:40:26.292165</dc:date>
    <dc:format>image/svg+xml</dc:format>
    <dc:creator>
     <cc:Agent>
      <dc:title>Matplotlib v3.10.8, https://matplotlib.org/</dc:title>
     </cc:Agent>
    </dc:creator>
   </cc:Work>
  </rdf:RDF>
 </metadata>
 <defs>
  <style type="text/css">*{stroke-linejoin: round; stroke-linecap: butt}</style>
 </defs>
 <g id="figure_1">
  <g id="patch_1">
   <path d="M 0 216 
L 720 216 
L 720 0 
L 0 0 
z
" style="fill: #ffffff"/>
  </g>
  <g id="axes_1">
   <g id="patch_2">
    <path d="M 42.1 178.931818 
L 198.15 178.931818 
L 198.15 37.068182 
L 42.1 37.068182 
z
" style="fill: #ffffff"/>
   </g>
   <g id="PathCollection_1">
    <path d="M 165.138247 159.335252 
L 168.300525 156.172975 
M 165.138247 156.172975 
L 168.300525 159.335252 
" clip-path="url(#p275c0a15fb)" style="fill: #ff0000; stroke: #ff0000; stroke-width: 1.5"/>
    <path d="M 120.360371 161.230908 
L 123.522648 158.06863 
M 120.360371 158.06863 
L 123.522648 161.230908 
" clip-path="url(#p275c0a15fb)" style="fill: #ff0000; stroke: #ff0000; stroke-width: 1.5"/>
    <path d="M 145.361264 61.099564 
L 148.523541 57.937286 
M 145.361264 57.937286 
L 148.523541 61.099564 
" clip-path="url(#p275c0a15fb)" style="fill: #0000ff; stroke: #0000ff; stroke-width: 1.5"/>
    <path d="M 107.976297 44.759954 
L 111.138574 41.597677 
M 107.976297 41.597677 
L 111.138574 44.759954 
" clip-path="url(#p275c0a15fb)" style="fill: #0000ff; stroke: #0000ff; stroke-width: 1.5"/>
    <path d="M 164.69677 132.532503 
L 167.859048 129.370225 
M 164.69677 129.370225 
L 167.859048 132.532503 
" clip-path="url(#p275c0a15fb)" style="fill: #ff0000; stroke: #ff0000; stroke-width: 1.5"/>
    <path d="M 129.291528 73.646815 
L 132.453806 70.484538 
M 129.291528 70.484538 
L 132.453806 73.646815 
" clip-path="url(#p275c0a15fb)" style="fill: #0000ff; stroke: #0000ff; stroke-width: 1.5"/>
    <path d="M 164.948015 48.091981 
L 168.110293 44.929704 
M 164.948015 44.929704 
L 168.110293 48.091981 
" clip-path="url(#p275c0a15fb)" style="fill: #ff0000; stroke: #ff0000; stroke-width: 1.5"/>
    <path d="M 68.181518 74.742237 
L 71.343795 71.579959 
M 68.181518 71.579959 
L 71.343795 74.742237 
" clip-path="url(#p275c0a15fb)" style="fill: #0000ff; stroke: #0000ff; stroke-width: 1.5"/>
    <path d="M 67.380938 51.909491 
L 70.543216 48.747214 
M 67.380938 48.747214 
L 70.543216 51.909491 
" clip-path="url(#p275c0a15fb)" style="fill: #0000ff; stroke: #0000ff; stroke-width: 1.5"/>
    <path d="M 79.689459 59.469263 
L 82.851736 56.306986 
M 79.689459 56.306986 
L 82.851736 59.469263 
" clip-path="url(#p275c0a15fb)" style="fill: #0000ff; stroke: #0000ff; stroke-width: 1.5"/>
    <path d="M 91.067409 42.929294 
L 94.229687 39.767017 
M 91.067409 39.767017 
L 94.229687 42.929294 
" clip-path="url(#p275c0a15fb)" style="fill: #0000ff; stroke: #0000ff; stroke-width: 1.5"/>
    <path d="M 121.073888 134.765543 
L 124.236165 131.603266 
M 121.073888 131.603266 
L 124.236165 134.765543 
" clip-path="url(#p275c0a15fb)" style="fill: #ff0000; stroke: #ff0000; stroke-width: 1.5"/>
    <path d="M 87.679089 94.562746 
L 90.841366 91.400468 
M 87.679089 91.400468 
L 90.841366 94.562746 
" clip-path="url(#p275c0a15fb)" style="fill: #0000ff; stroke: #0000ff; stroke-width: 1.5"/>
    <path d="M 94.961083 84.237374 
L 98.12336 81.075097 
M 94.961083 81.075097 
L 98.12336 84.237374 
" clip-path="url(#p275c0a15fb)" style="fill: #0000ff; stroke: #0000ff; stroke-width: 1.5"/>
    <path d="M 69.519345 145.078894 
L 72.681623 141.916616 
M 69.519345 141.916616 
L 72.681623 145.078894 
" clip-path="url(#p275c0a15fb)" style="fill: #0000ff; stroke: #0000ff; stroke-width: 1.5"/>
    <path d="M 171.018404 95.342595 
L 174.180682 92.180317 
M 171.018404 92.180317 
L 174.180682 95.342595 
" clip-path="url(#p275c0a15fb)" style="fill: #ff0000; stroke: #ff0000; stroke-width: 1.5"/>
    <path d="M 84.777912 159.316416 
L 87.94019 156.154138 
M 84.777912 156.154138 
L 87.94019 159.316416 
" clip-path="url(#p275c0a15fb)" style="fill: #0000ff; stroke: #0000ff; stroke-width: 1.5"/>
    <path d="M 67.017449 145.200128 
L 70.179727 142.03785 
M 67.017449 142.03785 
L 70.179727 145.200128 
" clip-path="url(#p275c0a15fb)" style="fill: #0000ff; stroke: #0000ff; stroke-width: 1.5"/>
    <path d="M 101.920942 88.432242 
L 105.08322 85.269964 
M 101.920942 85.269964 
L 105.08322 88.432242 
" clip-path="url(#p275c0a15fb)" style="fill: #0000ff; stroke: #0000ff; stroke-width: 1.5"/>
    <path d="M 166.431884 70.422243 
L 169.594161 67.259965 
M 166.431884 67.259965 
L 169.594161 70.422243 
" clip-path="url(#p275c0a15fb)" style="fill: #ff0000; stroke: #ff0000; stroke-width: 1.5"/>
    <path d="M 95.776957 159.436456 
L 98.939235 156.274178 
M 95.776957 156.274178 
L 98.939235 159.436456 
" clip-path="url(#p275c0a15fb)" style="fill: #ff0000; stroke: #ff0000; stroke-width: 1.5"/>
    <path d="M 112.446475 118.395927 
L 115.608753 115.233649 
M 112.446475 115.233649 
L 115.608753 118.395927 
" clip-path="url(#p275c0a15fb)" style="fill: #0000ff; stroke: #0000ff; stroke-width: 1.5"/>
    <path d="M 129.072638 127.559628 
L 132.234916 124.39735 
M 129.072638 124.39735 
L 132.234916 127.559628 
" clip-path="url(#p275c0a15fb)" style="fill: #ff0000; stroke: #ff0000; stroke-width: 1.5"/>
    <path d="M 137.52877 164.249091 
L 140.691048 161.086814 
M 137.52877 161.086814 
L 140.691048 164.249091 
" clip-path="url(#p275c0a15fb)" style="fill: #ff0000; stroke: #ff0000; stroke-width: 1.5"/>
    <path d="M 80.679105 71.669356 
L 83.841383 68.507079 
M 80.679105 68.507079 
L 83.841383 71.669356 
" clip-path="url(#p275c0a15fb)" style="fill: #0000ff; stroke: #0000ff; stroke-width: 1.5"/>
    <path d="M 187.649082 65.886986 
L 190.811359 62.724708 
M 187.649082 62.724708 
L 190.811359 65.886986 
" clip-path="url(#p275c0a15fb)" style="fill: #ff0000; stroke: #ff0000; stroke-width: 1.5"/>
    <path d="M 167.198215 67.634519 
L 170.360492 64.472241 
M 167.198215 64.472241 
L 170.360492 67.634519 
" clip-path="url(#p275c0a15fb)" style="fill: #ff0000; stroke: #ff0000; stroke-width: 1.5"/>
    <path d="M 112.421212 75.722449 
L 115.58349 72.560171 
M 112.421212 72.560171 
L 115.58349 75.722449 
" clip-path="url(#p275c0a15fb)" style="fill: #0000ff; stroke: #0000ff; stroke-width: 1.5"/>
    <path d="M 129.673772 116.56997 
L 132.836049 113.407693 
M 129.673772 113.407693 
L 132.836049 116.56997 
" clip-path="url(#p275c0a15fb)" style="fill: #ff0000; stroke: #ff0000; stroke-width: 1.5"/>
    <path d="M 86.060552 57.857211 
L 89.22283 54.694933 
M 86.060552 54.694933 
L 89.22283 57.857211 
" clip-path="url(#p275c0a15fb)" style="fill: #0000ff; stroke: #0000ff; stroke-width: 1.5"/>
    <path d="M 57.351785 64.648037 
L 60.514063 61.485759 
M 57.351785 61.485759 
L 60.514063 64.648037 
" clip-path="url(#p275c0a15fb)" style="fill: #0000ff; stroke: #0000ff; stroke-width: 1.5"/>
    <path d="M 172.712363 120.431381 
L 175.87464 117.269104 
M 172.712363 117.269104 
L 175.87464 120.431381 
" clip-path="url(#p275c0a15fb)" style="fill: #ff0000; stroke: #ff0000; stroke-width: 1.5"/>
    <path d="M 165.816983 132.135086 
L 168.979261 128.972808 
M 165.816983 128.972808 
L 168.979261 132.135086 
" clip-path="url(#p275c0a15fb)" style="fill: #ff0000; stroke: #ff0000; stroke-width: 1.5"/>
    <path d="M 121.351556 102.600533 
L 124.513834 99.438255 
M 121.351556 99.438255 
L 124.513834 102.600533 
" clip-path="url(#p275c0a15fb)" style="fill: #0000ff; stroke: #0000ff; stroke-width: 1.5"/>
    <path d="M 74.974301 133.241598 
L 78.136579 130.07932 
M 74.974301 130.07932 
L 78.136579 133.241598 
" clip-path="url(#p275c0a15fb)" style="fill: #0000ff; stroke: #0000ff; stroke-width: 1.5"/>
    <path d="M 86.982686 115.601983 
L 90.144964 112.439705 
M 86.982686 112.439705 
L 90.144964 115.601983 
" clip-path="url(#p275c0a15fb)" style="fill: #0000ff; stroke: #0000ff; stroke-width: 1.5"/>
    <path d="M 143.348097 83.502174 
L 146.510375 80.339896 
M 143.348097 80.339896 
L 146.510375 83.502174 
" clip-path="url(#p275c0a15fb)" style="fill: #ff0000; stroke: #ff0000; stroke-width: 1.5"/>
    <path d="M 121.893704 114.635376 
L 125.055982 111.473098 
M 121.893704 111.473098 
L 125.055982 114.635376 
" clip-path="url(#p275c0a15fb)" style="fill: #ff0000; stroke: #ff0000; stroke-width: 1.5"/>
    <path d="M 119.768054 134.463413 
L 122.930331 131.301135 
M 119.768054 131.301135 
L 122.930331 134.463413 
" clip-path="url(#p275c0a15fb)" style="fill: #ff0000; stroke: #ff0000; stroke-width: 1.5"/>
    <path d="M 72.097807 138.048425 
L 75.260084 134.886148 
M 72.097807 134.886148 
L 75.260084 138.048425 
" clip-path="url(#p275c0a15fb)" style="fill: #0000ff; stroke: #0000ff; stroke-width: 1.5"/>
    <path d="M 139.620156 171.332123 
L 142.782433 168.169845 
M 139.620156 168.169845 
L 142.782433 171.332123 
" clip-path="url(#p275c0a15fb)" style="fill: #ff0000; stroke: #ff0000; stroke-width: 1.5"/>
    <path d="M 137.512226 140.932787 
L 140.674503 137.770509 
M 137.512226 137.770509 
L 140.674503 140.932787 
" clip-path="url(#p275c0a15fb)" style="fill: #ff0000; stroke: #ff0000; stroke-width: 1.5"/>
    <path d="M 73.992994 111.134812 
L 77.155272 107.972534 
M 73.992994 107.972534 
L 77.155272 111.134812 
" clip-path="url(#p275c0a15fb)" style="fill: #0000ff; stroke: #0000ff; stroke-width: 1.5"/>
    <path d="M 97.787095 166.865389 
L 100.949372 163.703111 
M 97.787095 163.703111 
L 100.949372 166.865389 
" clip-path="url(#p275c0a15fb)" style="fill: #ff0000; stroke: #ff0000; stroke-width: 1.5"/>
    <path d="M 148.272947 68.21078 
L 151.435225 65.048502 
M 148.272947 65.048502 
L 151.435225 68.21078 
" clip-path="url(#p275c0a15fb)" style="fill: #ff0000; stroke: #ff0000; stroke-width: 1.5"/>
    <path d="M 53.898234 91.71728 
L 57.060511 88.555002 
M 53.898234 88.555002 
L 57.060511 91.71728 
" clip-path="url(#p275c0a15fb)" style="fill: #0000ff; stroke: #0000ff; stroke-width: 1.5"/>
    <path d="M 83.058417 119.900833 
L 86.220695 116.738555 
M 83.058417 116.738555 
L 86.220695 119.900833 
" clip-path="url(#p275c0a15fb)" style="fill: #0000ff; stroke: #0000ff; stroke-width: 1.5"/>
    <path d="M 159.757162 105.098008 
L 162.91944 101.935731 
M 159.757162 101.935731 
L 162.91944 105.098008 
" clip-path="url(#p275c0a15fb)" style="fill: #ff0000; stroke: #ff0000; stroke-width: 1.5"/>
    <path d="M 49.461581 177.69341 
L 52.623858 174.531132 
M 49.461581 174.531132 
L 52.623858 177.69341 
" clip-path="url(#p275c0a15fb)" style="fill: #0000ff; stroke: #0000ff; stroke-width: 1.5"/>
    <path d="M 102.998164 53.502156 
L 106.160442 50.339878 
M 102.998164 50.339878 
L 106.160442 53.502156 
" clip-path="url(#p275c0a15fb)" style="fill: #0000ff; stroke: #0000ff; stroke-width: 1.5"/>
    <path d="M 80.461097 117.475548 
L 83.623375 114.31327 
M 80.461097 114.31327 
L 83.623375 117.475548 
" clip-path="url(#p275c0a15fb)" style="fill: #0000ff; stroke: #0000ff; stroke-width: 1.5"/>
    <path d="M 68.050763 65.647965 
L 71.213041 62.485687 
M 68.050763 62.485687 
L 71.213041 65.647965 
" clip-path="url(#p275c0a15fb)" style="fill: #0000ff; stroke: #0000ff; stroke-width: 1.5"/>
    <path d="M 101.826916 129.878197 
L 104.989194 126.71592 
M 101.826916 126.71592 
L 104.989194 129.878197 
" clip-path="url(#p275c0a15fb)" style="fill: #0000ff; stroke: #0000ff; stroke-width: 1.5"/>
    <path d="M 84.050257 61.932849 
L 87.212535 58.770572 
M 84.050257 58.770572 
L 87.212535 61.932849 
" clip-path="url(#p275c0a15fb)" style="fill: #0000ff; stroke: #0000ff; stroke-width: 1.5"/>
    <path d="M 109.542477 173.455939 
L 112.704755 170.293661 
M 109.542477 170.293661 
L 112.704755 173.455939 
" clip-path="url(#p275c0a15fb)" style="fill: #ff0000; stroke: #ff0000; stroke-width: 1.5"/>
    <path d="M 161.634982 144.549994 
L 164.797259 141.387716 
M 161.634982 141.387716 
L 164.797259 144.549994 
" clip-path="url(#p275c0a15fb)" style="fill: #ff0000; stroke: #ff0000; stroke-width: 1.5"/>
    <path d="M 73.435126 147.360803 
L 76.597404 144.198525 
M 73.435126 144.198525 
L 76.597404 147.360803 
" clip-path="url(#p275c0a15fb)" style="fill: #0000ff; stroke: #0000ff; stroke-width: 1.5"/>
    <path d="M 124.72735 43.916416 
L 127.889628 40.754139 
M 124.72735 40.754139 
L 127.889628 43.916416 
" clip-path="url(#p275c0a15fb)" style="fill: #0000ff; stroke: #0000ff; stroke-width: 1.5"/>
    <path d="M 87.935457 115.767072 
L 91.097735 112.604794 
M 87.935457 112.604794 
L 91.097735 115.767072 
" clip-path="url(#p275c0a15fb)" style="fill: #0000ff; stroke: #0000ff; stroke-width: 1.5"/>
    <path d="M 134.567931 42.080049 
L 137.730209 38.917771 
M 134.567931 38.917771 
L 137.730209 42.080049 
" clip-path="url(#p275c0a15fb)" style="fill: #0000ff; stroke: #0000ff; stroke-width: 1.5"/>
    <path d="M 182.868618 123.839631 
L 186.030896 120.677354 
M 182.868618 120.677354 
L 186.030896 123.839631 
" clip-path="url(#p275c0a15fb)" style="fill: #ff0000; stroke: #ff0000; stroke-width: 1.5"/>
    <path d="M 100.508932 119.656548 
L 103.671209 116.49427 
M 100.508932 116.49427 
L 103.671209 119.656548 
" clip-path="url(#p275c0a15fb)" style="fill: #0000ff; stroke: #0000ff; stroke-width: 1.5"/>
    <path d="M 63.338069 62.743881 
L 66.500347 59.581603 
M 63.338069 59.581603 
L 66.500347 62.743881 
" clip-path="url(#p275c0a15fb)" style="fill: #0000ff; stroke: #0000ff; stroke-width: 1.5"/>
    <path d="M 173.651852 127.231569 
L 176.81413 124.069291 
M 173.651852 124.069291 
L 176.81413 127.231569 
" clip-path="url(#p275c0a15fb)" style="fill: #ff0000; stroke: #ff0000; stroke-width: 1.5"/>
    <path d="M 150.503941 75.295586 
L 153.666218 72.133308 
M 150.503941 72.133308 
L 153.666218 75.295586 
" clip-path="url(#p275c0a15fb)" style="fill: #ff0000; stroke: #ff0000; stroke-width: 1.5"/>
    <path d="M 110.017586 59.112111 
L 113.179864 55.949834 
M 110.017586 55.949834 
L 113.179864 59.112111 
" clip-path="url(#p275c0a15fb)" style="fill: #0000ff; stroke: #0000ff; stroke-width: 1.5"/>
    <path d="M 186.468291 44.417329 
L 189.630568 41.255051 
M 186.468291 41.255051 
L 189.630568 44.417329 
" clip-path="url(#p275c0a15fb)" style="fill: #ff0000; stroke: #ff0000; stroke-width: 1.5"/>
    <path d="M 109.31341 154.529247 
L 112.475687 151.36697 
M 109.31341 151.36697 
L 112.475687 154.529247 
" clip-path="url(#p275c0a15fb)" style="fill: #ff0000; stroke: #ff0000; stroke-width: 1.5"/>
    <path d="M 159.218082 46.443542 
L 162.38036 43.281265 
M 159.218082 43.281265 
L 162.38036 46.443542 
" clip-path="url(#p275c0a15fb)" style="fill: #ff0000; stroke: #ff0000; stroke-width: 1.5"/>
    <path d="M 120.856958 140.764398 
L 124.019235 137.602121 
M 120.856958 137.602121 
L 124.019235 140.764398 
" clip-path="url(#p275c0a15fb)" style="fill: #ff0000; stroke: #ff0000; stroke-width: 1.5"/>
   </g>
   <g id="matplotlib.axis_1">
    <g id="xtick_1">
     <g id="line2d_1">
      <defs>
       <path id="mc59a7555b7" d="M 0 0 
L 0 3.5 
" style="stroke: #000000; stroke-width: 0.8"/>
      </defs>
      <g>
       <use xlink:href="#mc59a7555b7" x="49.193182" y="178.931818" style="stroke: #000000; stroke-width: 0.8"/>
      </g>
     </g>
     <g id="text_1">
      <!-- −1.0 -->
      <g transform="translate(37.051776 193.530256) scale(0.1 -0.1)">
       <defs>
        <path id="DejaVuSans-2212" d="M 678 2272 
L 4684 2272 
L 4684 1741 
L 678 1741 
L 678 2272 
z
" transform="scale(0.015625)"/>
        <path id="DejaVuSans-31" d="M 794 531 
L 1825 531 
L 1825 4091 
L 703 3866 
L 703 4441 
L 1819 4666 
L 2450 4666 
L 2450 531 
L 3481 531 
L 3481 0 
L 794 0 
L 794 531 
z
" transform="scale(0.015625)"/>
        <path id="DejaVuSans-2e" d="M 684 794 
L 1344 794 
L 1344 0 
L 684 0 
L 684 794 
z
" transform="scale(0.015625)"/>
        <path id="DejaVuSans-30" d="M 2034 4250 
Q 1547 4250 1301 3770 
Q 1056 3291 1056 2328 
Q 1056 1369 1301 889 
Q 1547 409 2034 409 
Q 2525 409 2770 889 
Q 3016 1369 3016 2328 
Q 3016 3291 2770 3770 
Q 2525 4250 2034 4250 
z
M 2034 4750 
Q 2819 4750 3233 4129 
Q 3647 3509 3647 2328 
Q 3647 1150 3233 529 
Q 2819 -91 2034 -91 
Q 1250 -91 836 529 
Q 422 1150 422 2328 
Q 422 3509 836 4129 
Q 1250 4750 2034 4750 
z
" transform="scale(0.015625)"/>
       </defs>
       <use xlink:href="#DejaVuSans-2212"/>
       <use xlink:href="#DejaVuSans-31" transform="translate(83.789062 0)"/>
       <use xlink:href="#DejaVuSans-2e" transform="translate(147.412109 0)"/>
       <use xlink:href="#DejaVuSans-30" transform="translate(179.199219 0)"/>
      </g>
     </g>
    </g>
    <g id="xtick_2">
     <g id="line2d_2">
      <g>
       <use xlink:href="#mc59a7555b7" x="84.659091" y="178.931818" style="stroke: #000000; stroke-width: 0.8"/>
      </g>
     </g>
     <g id="text_2">
      <!-- −0.5 -->
      <g transform="translate(72.517685 193.530256) scale(0.1 -0.1)">
       <defs>
        <path id="DejaVuSans-35" d="M 691 4666 
L 3169 4666 
L 3169 4134 
L 1269 4134 
L 1269 2991 
Q 1406 3038 1543 3061 
Q 1681 3084 1819 3084 
Q 2600 3084 3056 2656 
Q 3513 2228 3513 1497 
Q 3513 744 3044 326 
Q 2575 -91 1722 -91 
Q 1428 -91 1123 -41 
Q 819 9 494 109 
L 494 744 
Q 775 591 1075 516 
Q 1375 441 1709 441 
Q 2250 441 2565 725 
Q 2881 1009 2881 1497 
Q 2881 1984 2565 2268 
Q 2250 2553 1709 2553 
Q 1456 2553 1204 2497 
Q 953 2441 691 2322 
L 691 4666 
z
" transform="scale(0.015625)"/>
       </defs>
       <use xlink:href="#DejaVuSans-2212"/>
       <use xlink:href="#DejaVuSans-30" transform="translate(83.789062 0)"/>
       <use xlink:href="#DejaVuSans-2e" transform="translate(147.412109 0)"/>
       <use xlink:href="#DejaVuSans-35" transform="translate(179.199219 0)"/>
      </g>
     </g>
    </g>
    <g id="xtick_3">
     <g id="line2d_3">
      <g>
       <use xlink:href="#mc59a7555b7" x="120.125" y="178.931818" style="stroke: #000000; stroke-width: 0.8"/>
      </g>
     </g>
     <g id="text_3">
      <!-- 0.0 -->
      <g transform="translate(112.173438 193.530256) scale(0.1 -0.1)">
       <use xlink:href="#DejaVuSans-30"/>
       <use xlink:href="#DejaVuSans-2e" transform="translate(63.623047 0)"/>
       <use xlink:href="#DejaVuSans-30" transform="translate(95.410156 0)"/>
      </g>
     </g>
    </g>
    <g id="xtick_4">
     <g id="line2d_4">
      <g>
       <use xlink:href="#mc59a7555b7" x="155.590909" y="178.931818" style="stroke: #000000; stroke-width: 0.8"/>
      </g>
     </g>
     <g id="text_4">
      <!-- 0.5 -->
      <g transform="translate(147.639347 193.530256) scale(0.1 -0.1)">
       <use xlink:href="#DejaVuSans-30"/>
       <use xlink:href="#DejaVuSans-2e" transform="translate(63.623047 0)"/>
       <use xlink:href="#DejaVuSans-35" transform="translate(95.410156 0)"/>
      </g>
     </g>
    </g>
    <g id="xtick_5">
     <g id="line2d_5">
      <g>
       <use xlink:href="#mc59a7555b7" x="191.056818" y="178.931818" style="stroke: #000000; stroke-width: 0.8"/>
      </g>
     </g>
     <g id="text_5">
      <!-- 1.0 -->
      <g transform="translate(183.105256 193.530256) scale(0.1 -0.1)">
       <use xlink:href="#DejaVuSans-31"/>
       <use xlink:href="#DejaVuSans-2e" transform="translate(63.623047 0)"/>
       <use xlink:href="#DejaVuSans-30" transform="translate(95.410156 0)"/>
      </g>
     </g>
    </g>
   </g>
   <g id="matplotlib.axis_2">
    <g id="ytick_1">
     <g id="line2d_6">
      <defs>
       <path id="m18263cf410" d="M 0 0 
L -3.5 0 
" style="stroke: #000000; stroke-width: 0.8"/>
      </defs>
      <g>
       <use xlink:href="#m18263cf410" x="42.1" y="178.931818" style="stroke: #000000; stroke-width: 0.8"/>
      </g>
     </g>
     <g id="text_6">
      <!-- −1.0 -->
      <g transform="translate(10.817188 182.731037) scale(0.1 -0.1)">
       <use xlink:href="#DejaVuSans-2212"/>
       <use xlink:href="#DejaVuSans-31" transform="translate(83.789062 0)"/>
       <use xlink:href="#DejaVuSans-2e" transform="translate(147.412109 0)"/>
       <use xlink:href="#DejaVuSans-30" transform="translate(179.199219 0)"/>
      </g>
     </g>
    </g>
    <g id="ytick_2">
     <g id="line2d_7">
      <g>
       <use xlink:href="#m18263cf410" x="42.1" y="143.465909" style="stroke: #000000; stroke-width: 0.8"/>
      </g>
     </g>
     <g id="text_7">
      <!-- −0.5 -->
      <g transform="translate(10.817188 147.265128) scale(0.1 -0.1)">
       <use xlink:href="#DejaVuSans-2212"/>
       <use xlink:href="#DejaVuSans-30" transform="translate(83.789062 0)"/>
       <use xlink:href="#DejaVuSans-2e" transform="translate(147.412109 0)"/>
       <use xlink:href="#DejaVuSans-35" transform="translate(179.199219 0)"/>
      </g>
     </g>
    </g>
    <g id="ytick_3">
     <g id="line2d_8">
      <g>
       <use xlink:href="#m18263cf410" x="42.1" y="108" style="stroke: #000000; stroke-width: 0.8"/>
      </g>
     </g>
     <g id="text_8">
      <!-- 0.0 -->
      <g transform="translate(19.196875 111.799219) scale(0.1 -0.1)">
       <use xlink:href="#DejaVuSans-30"/>
       <use xlink:href="#DejaVuSans-2e" transform="translate(63.623047 0)"/>
       <use xlink:href="#DejaVuSans-30" transform="translate(95.410156 0)"/>
      </g>
     </g>
    </g>
    <g id="ytick_4">
     <g id="line2d_9">
      <g>
       <use xlink:href="#m18263cf410" x="42.1" y="72.534091" style="stroke: #000000; stroke-width: 0.8"/>
      </g>
     </g>
     <g id="text_9">
      <!-- 0.5 -->
      <g transform="translate(19.196875 76.33331) scale(0.1 -0.1)">
       <use xlink:href="#DejaVuSans-30"/>
       <use xlink:href="#DejaVuSans-2e" transform="translate(63.623047 0)"/>
       <use xlink:href="#DejaVuSans-35" transform="translate(95.410156 0)"/>
      </g>
     </g>
    </g>
    <g id="ytick_5">
     <g id="line2d_10">
      <g>
       <use xlink:href="#m18263cf410" x="42.1" y="37.068182" style="stroke: #000000; stroke-width: 0.8"/>
      </g>
     </g>
     <g id="text_10">
      <!-- 1.0 -->
      <g transform="translate(19.196875 40.867401) scale(0.1 -0.1)">
       <use xlink:href="#DejaVuSans-31"/>
       <use xlink:href="#DejaVuSans-2e" transform="translate(63.623047 0)"/>
       <use xlink:href="#DejaVuSans-30" transform="translate(95.410156 0)"/>
      </g>
     </g>
    </g>
   </g>
   <g id="line2d_11">
    <path d="M 50.250958 217 
L 50.626148 216.414722 
L 52.059114 214.179367 
L 53.49208 211.944012 
L 54.925046 209.708657 
L 56.358012 207.473302 
L 57.790978 205.237947 
L 59.223944 203.002592 
L 60.65691 200.767237 
L 62.089876 198.531882 
L 63.522842 196.296526 
L 64.955808 194.061171 
L 66.388774 191.825816 
L 67.82174 189.590461 
L 69.254706 187.355106 
L 70.687672 185.119751 
L 72.120638 182.884396 
L 73.553604 180.649041 
L 74.98657 178.413686 
L 76.419536 176.178331 
L 77.852502 173.942975 
L 79.285468 171.70762 
L 80.718434 169.472265 
L 82.1514 167.23691 
L 83.584366 165.001555 
L 85.017332 162.7662 
L 86.450298 160.530845 
L 87.883264 158.29549 
L 89.31623 156.060135 
L 90.749197 153.82478 
L 92.182163 151.589424 
L 93.615129 149.354069 
L 95.048095 147.118714 
L 96.481061 144.883359 
L 97.914027 142.648004 
L 99.346993 140.412649 
L 100.779959 138.177294 
L 102.212925 135.941939 
L 103.645891 133.706584 
L 105.078857 131.471229 
L 106.511823 129.235873 
L 107.944789 127.000518 
L 109.377755 124.765163 
L 110.810721 122.529808 
L 112.243687 120.294453 
L 113.676653 118.059098 
L 115.109619 115.823743 
L 116.542585 113.588388 
L 117.975551 111.353033 
L 119.408517 109.117678 
L 120.841483 106.882322 
L 122.274449 104.646967 
L 123.707415 102.411612 
L 125.140381 100.176257 
L 126.573347 97.940902 
L 128.006313 95.705547 
L 129.439279 93.470192 
L 130.872245 91.234837 
L 132.305211 88.999482 
L 133.738177 86.764127 
L 135.171143 84.528771 
L 136.604109 82.293416 
L 138.037075 80.058061 
L 139.470041 77.822706 
L 140.903007 75.587351 
L 142.335973 73.351996 
L 143.768939 71.116641 
L 145.201905 68.881286 
L 146.634871 66.645931 
L 148.067837 64.410576 
L 149.500803 62.17522 
L 150.93377 59.939865 
L 152.366736 57.70451 
L 153.799702 55.469155 
L 155.232668 53.2338 
L 156.665634 50.998445 
L 158.0986 48.76309 
L 159.531566 46.527735 
L 160.964532 44.29238 
L 162.397498 42.057025 
L 163.830464 39.821669 
L 165.26343 37.586314 
L 166.696396 35.350959 
L 168.129362 33.115604 
L 169.562328 30.880249 
L 170.995294 28.644894 
L 172.42826 26.409539 
L 173.861226 24.174184 
L 175.294192 21.938829 
L 176.727158 19.703474 
L 178.160124 17.468118 
L 179.59309 15.232763 
L 181.026056 12.997408 
L 182.459022 10.762053 
L 183.891988 8.526698 
L 185.324954 6.291343 
L 186.75792 4.055988 
L 188.190886 1.820633 
L 189.623852 -0.414722 
L 189.999042 -1 
" clip-path="url(#p275c0a15fb)" style="fill: none; stroke: #000000; stroke-width: 1.5; stroke-linecap: square"/>
   </g>
   <g id="patch_3">
    <path d="M 42.1 178.931818 
L 42.1 37.068182 
" style="fill: none; stroke: #000000; stroke-width: 0.8; stroke-linejoin: miter; stroke-linecap: square"/>
   </g>
   <g id="patch_4">
    <path d="M 198.15 178.931818 
L 198.15 37.068182 
" style="fill: none; stroke: #000000; stroke-width: 0.8; stroke-linejoin: miter; stroke-linecap: square"/>
   </g>
   <g id="patch_5">
    <path d="M 42.1 178.931818 
L 198.15 178.931818 
" style="fill: none; stroke: #000000; stroke-width: 0.8; stroke-linejoin: miter; stroke-linecap: square"/>
   </g>
   <g id="patch_6">
    <path d="M 42.1 37.068182 
L 198.15 37.068182 
" style="fill: none; stroke: #000000; stroke-width: 0.8; stroke-linejoin: miter; stroke-linecap: square"/>
   </g>
  </g>
  <g id="axes_2">
   <g id="patch_7">
    <path d="M 212.45 178.931818 
L 368.5 178.931818 
L 368.5 37.068182 
L 212.45 37.068182 
z
" style="fill: #ffffff"/>
   </g>
   <g id="PathCollection_2">
    <path d="M 258.941233 174.419691 
L 262.103511 171.257413 
M 258.941233 171.257413 
L 262.103511 174.419691 
" clip-path="url(#pc33fc6f184)" style="fill: #0000ff; stroke: #0000ff; stroke-width: 1.5"/>
    <path d="M 356.088196 95.895312 
L 359.250474 92.733034 
M 356.088196 92.733034 
L 359.250474 95.895312 
" clip-path="url(#pc33fc6f184)" style="fill: #ff0000; stroke: #ff0000; stroke-width: 1.5"/>
    <path d="M 330.071649 51.368902 
L 333.233927 48.206624 
M 330.071649 48.206624 
L 333.233927 51.368902 
" clip-path="url(#pc33fc6f184)" style="fill: #ff0000; stroke: #ff0000; stroke-width: 1.5"/>
    <path d="M 315.586135 153.560076 
L 318.748413 150.397798 
M 315.586135 150.397798 
L 318.748413 153.560076 
" clip-path="url(#pc33fc6f184)" style="fill: #ff0000; stroke: #ff0000; stroke-width: 1.5"/>
    <path d="M 357.19822 140.118698 
L 360.360498 136.95642 
M 357.19822 136.95642 
L 360.360498 140.118698 
" clip-path="url(#pc33fc6f184)" style="fill: #ff0000; stroke: #ff0000; stroke-width: 1.5"/>
    <path d="M 307.233023 98.085009 
L 310.395301 94.922732 
M 307.233023 94.922732 
L 310.395301 98.085009 
" clip-path="url(#pc33fc6f184)" style="fill: #ff0000; stroke: #ff0000; stroke-width: 1.5"/>
    <path d="M 303.06778 104.580714 
L 306.230057 101.418437 
M 303.06778 101.418437 
L 306.230057 104.580714 
" clip-path="url(#pc33fc6f184)" style="fill: #ff0000; stroke: #ff0000; stroke-width: 1.5"/>
    <path d="M 359.226604 109.30506 
L 362.388882 106.142783 
M 359.226604 106.142783 
L 362.388882 109.30506 
" clip-path="url(#pc33fc6f184)" style="fill: #ff0000; stroke: #ff0000; stroke-width: 1.5"/>
    <path d="M 327.342109 110.40937 
L 330.504387 107.247092 
M 327.342109 107.247092 
L 330.504387 110.40937 
" clip-path="url(#pc33fc6f184)" style="fill: #ff0000; stroke: #ff0000; stroke-width: 1.5"/>
    <path d="M 359.495774 41.682093 
L 362.658052 38.519815 
M 359.495774 38.519815 
L 362.658052 41.682093 
" clip-path="url(#pc33fc6f184)" style="fill: #ff0000; stroke: #ff0000; stroke-width: 1.5"/>
    <path d="M 273.795037 134.843469 
L 276.957315 131.681191 
M 273.795037 131.681191 
L 276.957315 134.843469 
" clip-path="url(#pc33fc6f184)" style="fill: #0000ff; stroke: #0000ff; stroke-width: 1.5"/>
    <path d="M 340.274125 67.117821 
L 343.436403 63.955543 
M 340.274125 63.955543 
L 343.436403 67.117821 
" clip-path="url(#pc33fc6f184)" style="fill: #ff0000; stroke: #ff0000; stroke-width: 1.5"/>
    <path d="M 316.050907 122.559129 
L 319.213184 119.396851 
M 316.050907 119.396851 
L 319.213184 122.559129 
" clip-path="url(#pc33fc6f184)" style="fill: #ff0000; stroke: #ff0000; stroke-width: 1.5"/>
    <path d="M 273.255542 161.836837 
L 276.41782 158.674559 
M 273.255542 158.674559 
L 276.41782 161.836837 
" clip-path="url(#pc33fc6f184)" style="fill: #0000ff; stroke: #0000ff; stroke-width: 1.5"/>
    <path d="M 306.697391 168.823199 
L 309.859669 165.660921 
M 306.697391 165.660921 
L 309.859669 168.823199 
" clip-path="url(#pc33fc6f184)" style="fill: #ff0000; stroke: #ff0000; stroke-width: 1.5"/>
    <path d="M 256.913966 87.43381 
L 260.076243 84.271532 
M 256.913966 84.271532 
L 260.076243 87.43381 
" clip-path="url(#pc33fc6f184)" style="fill: #0000ff; stroke: #0000ff; stroke-width: 1.5"/>
    <path d="M 220.044038 62.123188 
L 223.206316 58.960911 
M 220.044038 58.960911 
L 223.206316 62.123188 
" clip-path="url(#pc33fc6f184)" style="fill: #0000ff; stroke: #0000ff; stroke-width: 1.5"/>
    <path d="M 228.232839 106.159271 
L 231.395117 102.996993 
M 228.232839 102.996993 
L 231.395117 106.159271 
" clip-path="url(#pc33fc6f184)" style="fill: #0000ff; stroke: #0000ff; stroke-width: 1.5"/>
    <path d="M 295.497687 148.274877 
L 298.659964 145.112599 
M 295.497687 145.112599 
L 298.659964 148.274877 
" clip-path="url(#pc33fc6f184)" style="fill: #0000ff; stroke: #0000ff; stroke-width: 1.5"/>
    <path d="M 353.580589 132.142585 
L 356.742867 128.980308 
M 353.580589 128.980308 
L 356.742867 132.142585 
" clip-path="url(#pc33fc6f184)" style="fill: #ff0000; stroke: #ff0000; stroke-width: 1.5"/>
    <path d="M 289.561676 57.462764 
L 292.723953 54.300486 
M 289.561676 54.300486 
L 292.723953 57.462764 
" clip-path="url(#pc33fc6f184)" style="fill: #ff0000; stroke: #ff0000; stroke-width: 1.5"/>
    <path d="M 311.159777 125.934837 
L 314.322055 122.77256 
M 311.159777 122.77256 
L 314.322055 125.934837 
" clip-path="url(#pc33fc6f184)" style="fill: #ff0000; stroke: #ff0000; stroke-width: 1.5"/>
    <path d="M 231.619597 44.918896 
L 234.781875 41.756618 
M 231.619597 41.756618 
L 234.781875 44.918896 
" clip-path="url(#pc33fc6f184)" style="fill: #0000ff; stroke: #0000ff; stroke-width: 1.5"/>
    <path d="M 301.60018 97.925212 
L 304.762458 94.762934 
M 301.60018 94.762934 
L 304.762458 97.925212 
" clip-path="url(#pc33fc6f184)" style="fill: #ff0000; stroke: #ff0000; stroke-width: 1.5"/>
    <path d="M 302.675243 159.393159 
L 305.83752 156.230882 
M 302.675243 156.230882 
L 305.83752 159.393159 
" clip-path="url(#pc33fc6f184)" style="fill: #0000ff; stroke: #0000ff; stroke-width: 1.5"/>
    <path d="M 297.412578 100.619965 
L 300.574856 97.457687 
M 297.412578 97.457687 
L 300.574856 100.619965 
" clip-path="url(#pc33fc6f184)" style="fill: #ff0000; stroke: #ff0000; stroke-width: 1.5"/>
    <path d="M 300.38314 154.27542 
L 303.545417 151.113142 
M 300.38314 151.113142 
L 303.545417 154.27542 
" clip-path="url(#pc33fc6f184)" style="fill: #0000ff; stroke: #0000ff; stroke-width: 1.5"/>
    <path d="M 318.631162 170.579572 
L 321.79344 167.417295 
M 318.631162 167.417295 
L 321.79344 170.579572 
" clip-path="url(#pc33fc6f184)" style="fill: #ff0000; stroke: #ff0000; stroke-width: 1.5"/>
    <path d="M 264.048565 165.354051 
L 267.210842 162.191774 
M 264.048565 162.191774 
L 267.210842 165.354051 
" clip-path="url(#pc33fc6f184)" style="fill: #0000ff; stroke: #0000ff; stroke-width: 1.5"/>
    <path d="M 324.080114 109.357844 
L 327.242391 106.195567 
M 324.080114 106.195567 
L 327.242391 109.357844 
" clip-path="url(#pc33fc6f184)" style="fill: #ff0000; stroke: #ff0000; stroke-width: 1.5"/>
    <path d="M 284.114206 170.058547 
L 287.276484 166.89627 
M 284.114206 166.89627 
L 287.276484 170.058547 
" clip-path="url(#pc33fc6f184)" style="fill: #0000ff; stroke: #0000ff; stroke-width: 1.5"/>
    <path d="M 280.679444 148.804863 
L 283.841721 145.642585 
M 280.679444 145.642585 
L 283.841721 148.804863 
" clip-path="url(#pc33fc6f184)" style="fill: #0000ff; stroke: #0000ff; stroke-width: 1.5"/>
    <path d="M 260.943281 124.569315 
L 264.105559 121.407037 
M 260.943281 121.407037 
L 264.105559 124.569315 
" clip-path="url(#pc33fc6f184)" style="fill: #0000ff; stroke: #0000ff; stroke-width: 1.5"/>
    <path d="M 318.207236 68.956623 
L 321.369514 65.794345 
M 318.207236 65.794345 
L 321.369514 68.956623 
" clip-path="url(#pc33fc6f184)" style="fill: #ff0000; stroke: #ff0000; stroke-width: 1.5"/>
    <path d="M 268.584109 85.445899 
L 271.746387 82.283622 
M 268.584109 82.283622 
L 271.746387 85.445899 
" clip-path="url(#pc33fc6f184)" style="fill: #0000ff; stroke: #0000ff; stroke-width: 1.5"/>
    <path d="M 290.34415 85.30185 
L 293.506428 82.139572 
M 290.34415 82.139572 
L 293.506428 85.30185 
" clip-path="url(#pc33fc6f184)" style="fill: #ff0000; stroke: #ff0000; stroke-width: 1.5"/>
    <path d="M 264.824152 53.059891 
L 267.986429 49.897613 
M 264.824152 49.897613 
L 267.986429 53.059891 
" clip-path="url(#pc33fc6f184)" style="fill: #0000ff; stroke: #0000ff; stroke-width: 1.5"/>
    <path d="M 311.988128 153.303888 
L 315.150405 150.14161 
M 311.988128 150.14161 
L 315.150405 153.303888 
" clip-path="url(#pc33fc6f184)" style="fill: #ff0000; stroke: #ff0000; stroke-width: 1.5"/>
    <path d="M 299.556123 74.199939 
L 302.718401 71.037662 
M 299.556123 71.037662 
L 302.718401 74.199939 
" clip-path="url(#pc33fc6f184)" style="fill: #ff0000; stroke: #ff0000; stroke-width: 1.5"/>
    <path d="M 328.605086 118.414766 
L 331.767364 115.252488 
M 328.605086 115.252488 
L 331.767364 118.414766 
" clip-path="url(#pc33fc6f184)" style="fill: #ff0000; stroke: #ff0000; stroke-width: 1.5"/>
    <path d="M 257.444492 93.12154 
L 260.60677 89.959263 
M 257.444492 89.959263 
L 260.60677 93.12154 
" clip-path="url(#pc33fc6f184)" style="fill: #0000ff; stroke: #0000ff; stroke-width: 1.5"/>
    <path d="M 321.508501 108.554735 
L 324.670779 105.392457 
M 321.508501 105.392457 
L 324.670779 108.554735 
" clip-path="url(#pc33fc6f184)" style="fill: #ff0000; stroke: #ff0000; stroke-width: 1.5"/>
    <path d="M 244.151183 93.366955 
L 247.313461 90.204678 
M 244.151183 90.204678 
L 247.313461 93.366955 
" clip-path="url(#pc33fc6f184)" style="fill: #0000ff; stroke: #0000ff; stroke-width: 1.5"/>
    <path d="M 325.828352 50.705679 
L 328.99063 47.543401 
M 325.828352 47.543401 
L 328.99063 50.705679 
" clip-path="url(#pc33fc6f184)" style="fill: #ff0000; stroke: #ff0000; stroke-width: 1.5"/>
    <path d="M 359.03817 128.267523 
L 362.200448 125.105246 
M 359.03817 125.105246 
L 362.200448 128.267523 
" clip-path="url(#pc33fc6f184)" style="fill: #ff0000; stroke: #ff0000; stroke-width: 1.5"/>
    <path d="M 332.246695 82.692858 
L 335.408972 79.530581 
M 332.246695 79.530581 
L 335.408972 82.692858 
" clip-path="url(#pc33fc6f184)" style="fill: #ff0000; stroke: #ff0000; stroke-width: 1.5"/>
    <path d="M 355.986347 108.337296 
L 359.148625 105.175019 
M 355.986347 105.175019 
L 359.148625 108.337296 
" clip-path="url(#pc33fc6f184)" style="fill: #ff0000; stroke: #ff0000; stroke-width: 1.5"/>
    <path d="M 340.055777 109.007112 
L 343.218055 105.844834 
M 340.055777 105.844834 
L 343.218055 109.007112 
" clip-path="url(#pc33fc6f184)" style="fill: #ff0000; stroke: #ff0000; stroke-width: 1.5"/>
    <path d="M 258.854626 44.269587 
L 262.016904 41.107309 
M 258.854626 41.107309 
L 262.016904 44.269587 
" clip-path="url(#pc33fc6f184)" style="fill: #0000ff; stroke: #0000ff; stroke-width: 1.5"/>
    <path d="M 258.261828 136.44185 
L 261.424106 133.279573 
M 258.261828 133.279573 
L 261.424106 136.44185 
" clip-path="url(#pc33fc6f184)" style="fill: #0000ff; stroke: #0000ff; stroke-width: 1.5"/>
    <path d="M 226.442867 180.448228 
L 229.605144 177.285951 
M 226.442867 177.285951 
L 229.605144 180.448228 
" clip-path="url(#pc33fc6f184)" style="fill: #0000ff; stroke: #0000ff; stroke-width: 1.5"/>
    <path d="M 266.416871 142.111275 
L 269.579148 138.948997 
M 266.416871 138.948997 
L 269.579148 142.111275 
" clip-path="url(#pc33fc6f184)" style="fill: #0000ff; stroke: #0000ff; stroke-width: 1.5"/>
    <path d="M 321.030789 178.434699 
L 324.193067 175.272421 
M 321.030789 175.272421 
L 324.193067 178.434699 
" clip-path="url(#pc33fc6f184)" style="fill: #ff0000; stroke: #ff0000; stroke-width: 1.5"/>
    <path d="M 344.443764 64.678757 
L 347.606042 61.516479 
M 344.443764 61.516479 
L 347.606042 64.678757 
" clip-path="url(#pc33fc6f184)" style="fill: #ff0000; stroke: #ff0000; stroke-width: 1.5"/>
    <path d="M 347.008172 71.63632 
L 350.17045 68.474042 
M 347.008172 68.474042 
L 350.17045 71.63632 
" clip-path="url(#pc33fc6f184)" style="fill: #ff0000; stroke: #ff0000; stroke-width: 1.5"/>
    <path d="M 311.23777 72.158311 
L 314.400048 68.996033 
M 311.23777 68.996033 
L 314.400048 72.158311 
" clip-path="url(#pc33fc6f184)" style="fill: #ff0000; stroke: #ff0000; stroke-width: 1.5"/>
    <path d="M 342.76549 59.38489 
L 345.927768 56.222613 
M 342.76549 56.222613 
L 345.927768 59.38489 
" clip-path="url(#pc33fc6f184)" style="fill: #ff0000; stroke: #ff0000; stroke-width: 1.5"/>
    <path d="M 256.333316 45.413107 
L 259.495593 42.250829 
M 256.333316 42.250829 
L 259.495593 45.413107 
" clip-path="url(#pc33fc6f184)" style="fill: #0000ff; stroke: #0000ff; stroke-width: 1.5"/>
    <path d="M 358.782432 82.106813 
L 361.944709 78.944535 
M 358.782432 78.944535 
L 361.944709 82.106813 
" clip-path="url(#pc33fc6f184)" style="fill: #ff0000; stroke: #ff0000; stroke-width: 1.5"/>
    <path d="M 304.939895 93.488949 
L 308.102173 90.326671 
M 304.939895 90.326671 
L 308.102173 93.488949 
" clip-path="url(#pc33fc6f184)" style="fill: #ff0000; stroke: #ff0000; stroke-width: 1.5"/>
    <path d="M 315.260937 51.934841 
L 318.423215 48.772563 
M 315.260937 48.772563 
L 318.423215 51.934841 
" clip-path="url(#pc33fc6f184)" style="fill: #ff0000; stroke: #ff0000; stroke-width: 1.5"/>
    <path d="M 261.842207 123.67719 
L 265.004485 120.514912 
M 261.842207 120.514912 
L 265.004485 123.67719 
" clip-path="url(#pc33fc6f184)" style="fill: #0000ff; stroke: #0000ff; stroke-width: 1.5"/>
    <path d="M 262.76795 78.097617 
L 265.930227 74.93534 
M 262.76795 74.93534 
L 265.930227 78.097617 
" clip-path="url(#pc33fc6f184)" style="fill: #0000ff; stroke: #0000ff; stroke-width: 1.5"/>
    <path d="M 222.794041 123.259016 
L 225.956319 120.096738 
M 222.794041 120.096738 
L 225.956319 123.259016 
" clip-path="url(#pc33fc6f184)" style="fill: #0000ff; stroke: #0000ff; stroke-width: 1.5"/>
    <path d="M 275.351476 124.700161 
L 278.513753 121.537883 
M 275.351476 121.537883 
L 278.513753 124.700161 
" clip-path="url(#pc33fc6f184)" style="fill: #0000ff; stroke: #0000ff; stroke-width: 1.5"/>
    <path d="M 298.616816 145.695365 
L 301.779093 142.533087 
M 298.616816 142.533087 
L 301.779093 145.695365 
" clip-path="url(#pc33fc6f184)" style="fill: #0000ff; stroke: #0000ff; stroke-width: 1.5"/>
    <path d="M 344.483027 126.867816 
L 347.645304 123.705538 
M 344.483027 123.705538 
L 347.645304 126.867816 
" clip-path="url(#pc33fc6f184)" style="fill: #ff0000; stroke: #ff0000; stroke-width: 1.5"/>
    <path d="M 353.824547 48.522487 
L 356.986825 45.360209 
M 353.824547 45.360209 
L 356.986825 48.522487 
" clip-path="url(#pc33fc6f184)" style="fill: #ff0000; stroke: #ff0000; stroke-width: 1.5"/>
    <path d="M 267.28617 128.195529 
L 270.448448 125.033252 
M 267.28617 125.033252 
L 270.448448 128.195529 
" clip-path="url(#pc33fc6f184)" style="fill: #0000ff; stroke: #0000ff; stroke-width: 1.5"/>
    <path d="M 305.868792 124.206291 
L 309.03107 121.044013 
M 305.868792 121.044013 
L 309.03107 124.206291 
" clip-path="url(#pc33fc6f184)" style="fill: #ff0000; stroke: #ff0000; stroke-width: 1.5"/>
   </g>
   <g id="matplotlib.axis_3">
    <g id="xtick_6">
     <g id="line2d_12">
      <g>
       <use xlink:href="#mc59a7555b7" x="219.543182" y="178.931818" style="stroke: #000000; stroke-width: 0.8"/>
      </g>
     </g>
     <g id="text_11">
      <!-- −1.0 -->
      <g transform="translate(207.401776 193.530256) scale(0.1 -0.1)">
       <use xlink:href="#DejaVuSans-2212"/>
       <use xlink:href="#DejaVuSans-31" transform="translate(83.789062 0)"/>
       <use xlink:href="#DejaVuSans-2e" transform="translate(147.412109 0)"/>
       <use xlink:href="#DejaVuSans-30" transform="translate(179.199219 0)"/>
      </g>
     </g>
    </g>
    <g id="xtick_7">
     <g id="line2d_13">
      <g>
       <use xlink:href="#mc59a7555b7" x="255.009091" y="178.931818" style="stroke: #000000; stroke-width: 0.8"/>
      </g>
     </g>
     <g id="text_12">
      <!-- −0.5 -->
      <g transform="translate(242.867685 193.530256) scale(0.1 -0.1)">
       <use xlink:href="#DejaVuSans-2212"/>
       <use xlink:href="#DejaVuSans-30" transform="translate(83.789062 0)"/>
       <use xlink:href="#DejaVuSans-2e" transform="translate(147.412109 0)"/>
       <use xlink:href="#DejaVuSans-35" transform="translate(179.199219 0)"/>
      </g>
     </g>
    </g>
    <g id="xtick_8">
     <g id="line2d_14">
      <g>
       <use xlink:href="#mc59a7555b7" x="290.475" y="178.931818" style="stroke: #000000; stroke-width: 0.8"/>
      </g>
     </g>
     <g id="text_13">
      <!-- 0.0 -->
      <g transform="translate(282.523438 193.530256) scale(0.1 -0.1)">
       <use xlink:href="#DejaVuSans-30"/>
       <use xlink:href="#DejaVuSans-2e" transform="translate(63.623047 0)"/>
       <use xlink:href="#DejaVuSans-30" transform="translate(95.410156 0)"/>
      </g>
     </g>
    </g>
    <g id="xtick_9">
     <g id="line2d_15">
      <g>
       <use xlink:href="#mc59a7555b7" x="325.940909" y="178.931818" style="stroke: #000000; stroke-width: 0.8"/>
      </g>
     </g>
     <g id="text_14">
      <!-- 0.5 -->
      <g transform="translate(317.989347 193.530256) scale(0.1 -0.1)">
       <use xlink:href="#DejaVuSans-30"/>
       <use xlink:href="#DejaVuSans-2e" transform="translate(63.623047 0)"/>
       <use xlink:href="#DejaVuSans-35" transform="translate(95.410156 0)"/>
      </g>
     </g>
    </g>
    <g id="xtick_10">
     <g id="line2d_16">
      <g>
       <use xlink:href="#mc59a7555b7" x="361.406818" y="178.931818" style="stroke: #000000; stroke-width: 0.8"/>
      </g>
     </g>
     <g id="text_15">
      <!-- 1.0 -->
      <g transform="translate(353.455256 193.530256) scale(0.1 -0.1)">
       <use xlink:href="#DejaVuSans-31"/>
       <use xlink:href="#DejaVuSans-2e" transform="translate(63.623047 0)"/>
       <use xlink:href="#DejaVuSans-30" transform="translate(95.410156 0)"/>
      </g>
     </g>
    </g>
   </g>
   <g id="matplotlib.axis_4">
    <g id="ytick_6">
     <g id="line2d_17">
      <g>
       <use xlink:href="#m18263cf410" x="212.45" y="178.931818" style="stroke: #000000; stroke-width: 0.8"/>
      </g>
     </g>
    </g>
    <g id="ytick_7">
     <g id="line2d_18">
      <g>
       <use xlink:href="#m18263cf410" x="212.45" y="143.465909" style="stroke: #000000; stroke-width: 0.8"/>
      </g>
     </g>
    </g>
    <g id="ytick_8">
     <g id="line2d_19">
      <g>
       <use xlink:href="#m18263cf410" x="212.45" y="108" style="stroke: #000000; stroke-width: 0.8"/>
      </g>
     </g>
    </g>
    <g id="ytick_9">
     <g id="line2d_20">
      <g>
       <use xlink:href="#m18263cf410" x="212.45" y="72.534091" style="stroke: #000000; stroke-width: 0.8"/>
      </g>
     </g>
    </g>
    <g id="ytick_10">
     <g id="line2d_21">
      <g>
       <use xlink:href="#m18263cf410" x="212.45" y="37.068182" style="stroke: #000000; stroke-width: 0.8"/>
      </g>
     </g>
    </g>
   </g>
   <g id="line2d_22">
    <path d="M 259.057191 -1 
L 259.66623 1.112984 
L 261.099197 6.084473 
L 262.532163 11.055962 
L 263.965129 16.027451 
L 265.398095 20.99894 
L 266.831061 25.970429 
L 268.264027 30.941919 
L 269.696993 35.913408 
L 271.129959 40.884897 
L 272.562925 45.856386 
L 273.995891 50.827875 
L 275.428857 55.799364 
L 276.861823 60.770853 
L 278.294789 65.742342 
L 279.727755 70.713832 
L 281.160721 75.685321 
L 282.593687 80.65681 
L 284.026653 85.628299 
L 285.459619 90.599788 
L 286.892585 95.571277 
L 288.325551 100.542766 
L 289.758517 105.514255 
L 291.191483 110.485745 
L 292.624449 115.457234 
L 294.057415 120.428723 
L 295.490381 125.400212 
L 296.923347 130.371701 
L 298.356313 135.34319 
L 299.789279 140.314679 
L 301.222245 145.286168 
L 302.655211 150.257658 
L 304.088177 155.229147 
L 305.521143 160.200636 
L 306.954109 165.172125 
L 308.387075 170.143614 
L 309.820041 175.115103 
L 311.253007 180.086592 
L 312.685973 185.058081 
L 314.118939 190.029571 
L 315.551905 195.00106 
L 316.984871 199.972549 
L 318.417837 204.944038 
L 319.850803 209.915527 
L 321.28377 214.887016 
L 321.892809 217 
" clip-path="url(#pc33fc6f184)" style="fill: none; stroke: #000000; stroke-width: 1.5; stroke-linecap: square"/>
   </g>
   <g id="patch_8">
    <path d="M 212.45 178.931818 
L 212.45 37.068182 
" style="fill: none; stroke: #000000; stroke-width: 0.8; stroke-linejoin: miter; stroke-linecap: square"/>
   </g>
   <g id="patch_9">
    <path d="M 368.5 178.931818 
L 368.5 37.068182 
" style="fill: none; stroke: #000000; stroke-width: 0.8; stroke-linejoin: miter; stroke-linecap: square"/>
   </g>
   <g id="patch_10">
    <path d="M 212.45 178.931818 
L 368.5 178.931818 
" style="fill: none; stroke: #000000; stroke-width: 0.8; stroke-linejoin: miter; stroke-linecap: square"/>
   </g>
   <g id="patch_11">
    <path d="M 212.45 37.068182 
L 368.5 37.068182 
" style="fill: none; stroke: #000000; stroke-width: 0.8; stroke-linejoin: miter; stroke-linecap: square"/>
   </g>
  </g>
  <g id="axes_3">
   <g id="patch_12">
    <path d="M 382.8 178.931818 
L 538.85 178.931818 
L 538.85 37.068182 
L 382.8 37.068182 
z
" style="fill: #ffffff"/>
   </g>
   <g id="PathCollection_3">
    <path d="M 501.983752 97.925334 
L 505.14603 94.763056 
M 501.983752 94.763056 
L 505.14603 97.925334 
" clip-path="url(#p8dd93a95f0)" style="fill: #0000ff; stroke: #0000ff; stroke-width: 1.5"/>
    <path d="M 401.665474 119.067994 
L 404.827752 115.905717 
M 401.665474 115.905717 
L 404.827752 119.067994 
" clip-path="url(#p8dd93a95f0)" style="fill: #ff0000; stroke: #ff0000; stroke-width: 1.5"/>
    <path d="M 456.272002 157.851814 
L 459.43428 154.689536 
M 456.272002 154.689536 
L 459.43428 157.851814 
" clip-path="url(#p8dd93a95f0)" style="fill: #ff0000; stroke: #ff0000; stroke-width: 1.5"/>
    <path d="M 492.521829 164.387031 
L 495.684107 161.224753 
M 492.521829 161.224753 
L 495.684107 164.387031 
" clip-path="url(#p8dd93a95f0)" style="fill: #ff0000; stroke: #ff0000; stroke-width: 1.5"/>
    <path d="M 443.813097 107.206316 
L 446.975374 104.044038 
M 443.813097 104.044038 
L 446.975374 107.206316 
" clip-path="url(#p8dd93a95f0)" style="fill: #ff0000; stroke: #ff0000; stroke-width: 1.5"/>
    <path d="M 449.4025 97.267578 
L 452.564778 94.1053 
M 449.4025 94.1053 
L 452.564778 97.267578 
" clip-path="url(#p8dd93a95f0)" style="fill: #ff0000; stroke: #ff0000; stroke-width: 1.5"/>
    <path d="M 492.984395 44.853407 
L 496.146672 41.691129 
M 492.984395 41.691129 
L 496.146672 44.853407 
" clip-path="url(#p8dd93a95f0)" style="fill: #0000ff; stroke: #0000ff; stroke-width: 1.5"/>
    <path d="M 428.629854 88.507692 
L 431.792131 85.345414 
M 428.629854 85.345414 
L 431.792131 88.507692 
" clip-path="url(#p8dd93a95f0)" style="fill: #ff0000; stroke: #ff0000; stroke-width: 1.5"/>
    <path d="M 487.079776 138.986527 
L 490.242054 135.824249 
M 487.079776 135.824249 
L 490.242054 138.986527 
" clip-path="url(#p8dd93a95f0)" style="fill: #0000ff; stroke: #0000ff; stroke-width: 1.5"/>
    <path d="M 388.523432 42.414343 
L 391.685709 39.252065 
M 388.523432 39.252065 
L 391.685709 42.414343 
" clip-path="url(#p8dd93a95f0)" style="fill: #ff0000; stroke: #ff0000; stroke-width: 1.5"/>
    <path d="M 430.644326 135.969761 
L 433.806603 132.807483 
M 430.644326 132.807483 
L 433.806603 135.969761 
" clip-path="url(#p8dd93a95f0)" style="fill: #ff0000; stroke: #ff0000; stroke-width: 1.5"/>
    <path d="M 514.813418 97.499614 
L 517.975696 94.337337 
M 514.813418 94.337337 
L 517.975696 97.499614 
" clip-path="url(#p8dd93a95f0)" style="fill: #0000ff; stroke: #0000ff; stroke-width: 1.5"/>
    <path d="M 455.173746 70.813069 
L 458.336024 67.650791 
M 455.173746 67.650791 
L 458.336024 70.813069 
" clip-path="url(#p8dd93a95f0)" style="fill: #0000ff; stroke: #0000ff; stroke-width: 1.5"/>
    <path d="M 392.617038 80.220318 
L 395.779316 77.05804 
M 392.617038 77.05804 
L 395.779316 80.220318 
" clip-path="url(#p8dd93a95f0)" style="fill: #ff0000; stroke: #ff0000; stroke-width: 1.5"/>
    <path d="M 441.403634 167.624261 
L 444.565912 164.461983 
M 441.403634 164.461983 
L 444.565912 167.624261 
" clip-path="url(#p8dd93a95f0)" style="fill: #ff0000; stroke: #ff0000; stroke-width: 1.5"/>
    <path d="M 482.012984 48.372107 
L 485.175262 45.20983 
M 482.012984 45.20983 
L 485.175262 48.372107 
" clip-path="url(#p8dd93a95f0)" style="fill: #0000ff; stroke: #0000ff; stroke-width: 1.5"/>
    <path d="M 417.704936 91.12607 
L 420.867213 87.963792 
M 417.704936 87.963792 
L 420.867213 91.12607 
" clip-path="url(#p8dd93a95f0)" style="fill: #ff0000; stroke: #ff0000; stroke-width: 1.5"/>
    <path d="M 430.610543 75.284657 
L 433.772821 72.122379 
M 430.610543 72.122379 
L 433.772821 75.284657 
" clip-path="url(#p8dd93a95f0)" style="fill: #ff0000; stroke: #ff0000; stroke-width: 1.5"/>
    <path d="M 490.760969 149.485192 
L 493.923246 146.322914 
M 490.760969 146.322914 
L 493.923246 149.485192 
" clip-path="url(#p8dd93a95f0)" style="fill: #0000ff; stroke: #0000ff; stroke-width: 1.5"/>
    <path d="M 506.042813 87.216023 
L 509.20509 84.053745 
M 506.042813 84.053745 
L 509.20509 87.216023 
" clip-path="url(#p8dd93a95f0)" style="fill: #0000ff; stroke: #0000ff; stroke-width: 1.5"/>
    <path d="M 485.176379 64.174029 
L 488.338657 61.011751 
M 485.176379 61.011751 
L 488.338657 64.174029 
" clip-path="url(#p8dd93a95f0)" style="fill: #0000ff; stroke: #0000ff; stroke-width: 1.5"/>
    <path d="M 449.110954 72.880241 
L 452.273231 69.717964 
M 449.110954 69.717964 
L 452.273231 72.880241 
" clip-path="url(#p8dd93a95f0)" style="fill: #0000ff; stroke: #0000ff; stroke-width: 1.5"/>
    <path d="M 512.936436 165.997481 
L 516.098714 162.835203 
M 512.936436 162.835203 
L 516.098714 165.997481 
" clip-path="url(#p8dd93a95f0)" style="fill: #0000ff; stroke: #0000ff; stroke-width: 1.5"/>
    <path d="M 508.863269 124.628993 
L 512.025547 121.466715 
M 508.863269 121.466715 
L 512.025547 124.628993 
" clip-path="url(#p8dd93a95f0)" style="fill: #0000ff; stroke: #0000ff; stroke-width: 1.5"/>
    <path d="M 456.361749 159.753403 
L 459.524026 156.591125 
M 456.361749 156.591125 
L 459.524026 159.753403 
" clip-path="url(#p8dd93a95f0)" style="fill: #ff0000; stroke: #ff0000; stroke-width: 1.5"/>
    <path d="M 487.393344 139.091809 
L 490.555622 135.929531 
M 487.393344 135.929531 
L 490.555622 139.091809 
" clip-path="url(#p8dd93a95f0)" style="fill: #0000ff; stroke: #0000ff; stroke-width: 1.5"/>
    <path d="M 511.895011 141.447347 
L 515.057288 138.285069 
M 511.895011 138.285069 
L 515.057288 141.447347 
" clip-path="url(#p8dd93a95f0)" style="fill: #0000ff; stroke: #0000ff; stroke-width: 1.5"/>
    <path d="M 468.012413 123.816272 
L 471.17469 120.653995 
M 468.012413 120.653995 
L 471.17469 123.816272 
" clip-path="url(#p8dd93a95f0)" style="fill: #ff0000; stroke: #ff0000; stroke-width: 1.5"/>
    <path d="M 475.261612 152.616999 
L 478.42389 149.454722 
M 475.261612 149.454722 
L 478.42389 152.616999 
" clip-path="url(#p8dd93a95f0)" style="fill: #ff0000; stroke: #ff0000; stroke-width: 1.5"/>
    <path d="M 413.888289 74.560627 
L 417.050567 71.398349 
M 413.888289 71.398349 
L 417.050567 74.560627 
" clip-path="url(#p8dd93a95f0)" style="fill: #ff0000; stroke: #ff0000; stroke-width: 1.5"/>
    <path d="M 495.025192 100.079414 
L 498.18747 96.917136 
M 495.025192 96.917136 
L 498.18747 100.079414 
" clip-path="url(#p8dd93a95f0)" style="fill: #0000ff; stroke: #0000ff; stroke-width: 1.5"/>
    <path d="M 518.979755 151.32096 
L 522.142033 148.158683 
M 518.979755 148.158683 
L 522.142033 151.32096 
" clip-path="url(#p8dd93a95f0)" style="fill: #0000ff; stroke: #0000ff; stroke-width: 1.5"/>
    <path d="M 509.023971 156.539803 
L 512.186248 153.377525 
M 509.023971 153.377525 
L 512.186248 156.539803 
" clip-path="url(#p8dd93a95f0)" style="fill: #0000ff; stroke: #0000ff; stroke-width: 1.5"/>
    <path d="M 525.119336 92.033639 
L 528.281614 88.871361 
M 525.119336 88.871361 
L 528.281614 92.033639 
" clip-path="url(#p8dd93a95f0)" style="fill: #0000ff; stroke: #0000ff; stroke-width: 1.5"/>
    <path d="M 474.406784 42.825962 
L 477.569062 39.663684 
M 474.406784 39.663684 
L 477.569062 42.825962 
" clip-path="url(#p8dd93a95f0)" style="fill: #0000ff; stroke: #0000ff; stroke-width: 1.5"/>
    <path d="M 499.963366 68.452391 
L 503.125643 65.290114 
M 499.963366 65.290114 
L 503.125643 68.452391 
" clip-path="url(#p8dd93a95f0)" style="fill: #0000ff; stroke: #0000ff; stroke-width: 1.5"/>
    <path d="M 395.98598 128.124659 
L 399.148258 124.962381 
M 395.98598 124.962381 
L 399.148258 128.124659 
" clip-path="url(#p8dd93a95f0)" style="fill: #ff0000; stroke: #ff0000; stroke-width: 1.5"/>
    <path d="M 400.355524 153.058431 
L 403.517802 149.896153 
M 400.355524 149.896153 
L 403.517802 153.058431 
" clip-path="url(#p8dd93a95f0)" style="fill: #ff0000; stroke: #ff0000; stroke-width: 1.5"/>
    <path d="M 418.651992 58.70289 
L 421.81427 55.540613 
M 418.651992 55.540613 
L 421.81427 58.70289 
" clip-path="url(#p8dd93a95f0)" style="fill: #ff0000; stroke: #ff0000; stroke-width: 1.5"/>
    <path d="M 406.293965 138.413821 
L 409.456243 135.251543 
M 406.293965 135.251543 
L 409.456243 138.413821 
" clip-path="url(#p8dd93a95f0)" style="fill: #ff0000; stroke: #ff0000; stroke-width: 1.5"/>
    <path d="M 458.229108 60.005414 
L 461.391385 56.843136 
M 458.229108 56.843136 
L 461.391385 60.005414 
" clip-path="url(#p8dd93a95f0)" style="fill: #0000ff; stroke: #0000ff; stroke-width: 1.5"/>
    <path d="M 525.243282 80.052965 
L 528.40556 76.890687 
M 525.243282 76.890687 
L 528.40556 80.052965 
" clip-path="url(#p8dd93a95f0)" style="fill: #0000ff; stroke: #0000ff; stroke-width: 1.5"/>
    <path d="M 418.626489 103.199732 
L 421.788767 100.037454 
M 418.626489 100.037454 
L 421.788767 103.199732 
" clip-path="url(#p8dd93a95f0)" style="fill: #ff0000; stroke: #ff0000; stroke-width: 1.5"/>
    <path d="M 488.46196 173.152713 
L 491.624238 169.990435 
M 488.46196 169.990435 
L 491.624238 173.152713 
" clip-path="url(#p8dd93a95f0)" style="fill: #ff0000; stroke: #ff0000; stroke-width: 1.5"/>
    <path d="M 484.762883 128.267157 
L 487.925161 125.104879 
M 484.762883 125.104879 
L 487.925161 128.267157 
" clip-path="url(#p8dd93a95f0)" style="fill: #0000ff; stroke: #0000ff; stroke-width: 1.5"/>
    <path d="M 471.96907 85.530531 
L 475.131348 82.368253 
M 471.96907 82.368253 
L 475.131348 85.530531 
" clip-path="url(#p8dd93a95f0)" style="fill: #0000ff; stroke: #0000ff; stroke-width: 1.5"/>
    <path d="M 483.236903 106.311214 
L 486.39918 103.148936 
M 483.236903 103.148936 
L 486.39918 106.311214 
" clip-path="url(#p8dd93a95f0)" style="fill: #0000ff; stroke: #0000ff; stroke-width: 1.5"/>
    <path d="M 467.009112 152.402718 
L 470.17139 149.24044 
M 467.009112 149.24044 
L 470.17139 152.402718 
" clip-path="url(#p8dd93a95f0)" style="fill: #ff0000; stroke: #ff0000; stroke-width: 1.5"/>
    <path d="M 458.561127 162.721913 
L 461.723405 159.559636 
M 458.561127 159.559636 
L 461.723405 162.721913 
" clip-path="url(#p8dd93a95f0)" style="fill: #ff0000; stroke: #ff0000; stroke-width: 1.5"/>
    <path d="M 456.512561 104.439302 
L 459.674839 101.277024 
M 456.512561 101.277024 
L 459.674839 104.439302 
" clip-path="url(#p8dd93a95f0)" style="fill: #0000ff; stroke: #0000ff; stroke-width: 1.5"/>
    <path d="M 498.129367 124.666238 
L 501.291645 121.50396 
M 498.129367 121.50396 
L 501.291645 124.666238 
" clip-path="url(#p8dd93a95f0)" style="fill: #0000ff; stroke: #0000ff; stroke-width: 1.5"/>
    <path d="M 391.09263 105.644432 
L 394.254907 102.482155 
M 391.09263 102.482155 
L 394.254907 105.644432 
" clip-path="url(#p8dd93a95f0)" style="fill: #ff0000; stroke: #ff0000; stroke-width: 1.5"/>
    <path d="M 417.427071 75.355469 
L 420.589348 72.193192 
M 417.427071 72.193192 
L 420.589348 75.355469 
" clip-path="url(#p8dd93a95f0)" style="fill: #ff0000; stroke: #ff0000; stroke-width: 1.5"/>
    <path d="M 443.454046 126.53765 
L 446.616323 123.375373 
M 443.454046 123.375373 
L 446.616323 126.53765 
" clip-path="url(#p8dd93a95f0)" style="fill: #ff0000; stroke: #ff0000; stroke-width: 1.5"/>
    <path d="M 517.330577 124.764741 
L 520.492854 121.602463 
M 517.330577 121.602463 
L 520.492854 124.764741 
" clip-path="url(#p8dd93a95f0)" style="fill: #0000ff; stroke: #0000ff; stroke-width: 1.5"/>
    <path d="M 437.801396 131.141612 
L 440.963674 127.979334 
M 437.801396 127.979334 
L 440.963674 131.141612 
" clip-path="url(#p8dd93a95f0)" style="fill: #ff0000; stroke: #ff0000; stroke-width: 1.5"/>
    <path d="M 456.515195 167.278199 
L 459.677473 164.115922 
M 456.515195 164.115922 
L 459.677473 167.278199 
" clip-path="url(#p8dd93a95f0)" style="fill: #ff0000; stroke: #ff0000; stroke-width: 1.5"/>
    <path d="M 465.875618 49.795907 
L 469.037896 46.633629 
M 465.875618 46.633629 
L 469.037896 49.795907 
" clip-path="url(#p8dd93a95f0)" style="fill: #0000ff; stroke: #0000ff; stroke-width: 1.5"/>
    <path d="M 468.170214 74.97915 
L 471.332492 71.816872 
M 468.170214 71.816872 
L 471.332492 74.97915 
" clip-path="url(#p8dd93a95f0)" style="fill: #0000ff; stroke: #0000ff; stroke-width: 1.5"/>
    <path d="M 522.676862 61.047406 
L 525.839139 57.885128 
M 522.676862 57.885128 
L 525.839139 61.047406 
" clip-path="url(#p8dd93a95f0)" style="fill: #0000ff; stroke: #0000ff; stroke-width: 1.5"/>
    <path d="M 493.859488 65.154592 
L 497.021766 61.992314 
M 493.859488 61.992314 
L 497.021766 65.154592 
" clip-path="url(#p8dd93a95f0)" style="fill: #0000ff; stroke: #0000ff; stroke-width: 1.5"/>
    <path d="M 504.65995 144.514322 
L 507.822227 141.352045 
M 504.65995 141.352045 
L 507.822227 144.514322 
" clip-path="url(#p8dd93a95f0)" style="fill: #0000ff; stroke: #0000ff; stroke-width: 1.5"/>
    <path d="M 456.685073 131.893913 
L 459.847351 128.731635 
M 456.685073 128.731635 
L 459.847351 131.893913 
" clip-path="url(#p8dd93a95f0)" style="fill: #ff0000; stroke: #ff0000; stroke-width: 1.5"/>
    <path d="M 425.44248 99.430571 
L 428.604757 96.268293 
M 425.44248 96.268293 
L 428.604757 99.430571 
" clip-path="url(#p8dd93a95f0)" style="fill: #ff0000; stroke: #ff0000; stroke-width: 1.5"/>
    <path d="M 433.408496 92.74809 
L 436.570774 89.585812 
M 433.408496 89.585812 
L 436.570774 92.74809 
" clip-path="url(#p8dd93a95f0)" style="fill: #ff0000; stroke: #ff0000; stroke-width: 1.5"/>
    <path d="M 470.93577 165.702539 
L 474.098048 162.540261 
M 470.93577 162.540261 
L 474.098048 165.702539 
" clip-path="url(#p8dd93a95f0)" style="fill: #ff0000; stroke: #ff0000; stroke-width: 1.5"/>
    <path d="M 451.07502 125.206727 
L 454.237297 122.044449 
M 451.07502 122.044449 
L 454.237297 125.206727 
" clip-path="url(#p8dd93a95f0)" style="fill: #ff0000; stroke: #ff0000; stroke-width: 1.5"/>
    <path d="M 488.560324 168.010111 
L 491.722601 164.847834 
M 488.560324 164.847834 
L 491.722601 168.010111 
" clip-path="url(#p8dd93a95f0)" style="fill: #ff0000; stroke: #ff0000; stroke-width: 1.5"/>
    <path d="M 412.281064 107.794018 
L 415.443341 104.63174 
M 412.281064 104.63174 
L 415.443341 107.794018 
" clip-path="url(#p8dd93a95f0)" style="fill: #ff0000; stroke: #ff0000; stroke-width: 1.5"/>
    <path d="M 445.709181 86.124458 
L 448.871458 82.96218 
M 445.709181 82.96218 
L 448.871458 86.124458 
" clip-path="url(#p8dd93a95f0)" style="fill: #0000ff; stroke: #0000ff; stroke-width: 1.5"/>
   </g>
   <g id="matplotlib.axis_5">
    <g id="xtick_11">
     <g id="line2d_23">
      <g>
       <use xlink:href="#mc59a7555b7" x="389.893182" y="178.931818" style="stroke: #000000; stroke-width: 0.8"/>
      </g>
     </g>
     <g id="text_16">
      <!-- −1.0 -->
      <g transform="translate(377.751776 193.530256) scale(0.1 -0.1)">
       <use xlink:href="#DejaVuSans-2212"/>
       <use xlink:href="#DejaVuSans-31" transform="translate(83.789062 0)"/>
       <use xlink:href="#DejaVuSans-2e" transform="translate(147.412109 0)"/>
       <use xlink:href="#DejaVuSans-30" transform="translate(179.199219 0)"/>
      </g>
     </g>
    </g>
    <g id="xtick_12">
     <g id="line2d_24">
      <g>
       <use xlink:href="#mc59a7555b7" x="425.359091" y="178.931818" style="stroke: #000000; stroke-width: 0.8"/>
      </g>
     </g>
     <g id="text_17">
      <!-- −0.5 -->
      <g transform="translate(413.217685 193.530256) scale(0.1 -0.1)">
       <use xlink:href="#DejaVuSans-2212"/>
       <use xlink:href="#DejaVuSans-30" transform="translate(83.789062 0)"/>
       <use xlink:href="#DejaVuSans-2e" transform="translate(147.412109 0)"/>
       <use xlink:href="#DejaVuSans-35" transform="translate(179.199219 0)"/>
      </g>
     </g>
    </g>
    <g id="xtick_13">
     <g id="line2d_25">
      <g>
       <use xlink:href="#mc59a7555b7" x="460.825" y="178.931818" style="stroke: #000000; stroke-width: 0.8"/>
      </g>
     </g>
     <g id="text_18">
      <!-- 0.0 -->
      <g transform="translate(452.873438 193.530256) scale(0.1 -0.1)">
       <use xlink:href="#DejaVuSans-30"/>
       <use xlink:href="#DejaVuSans-2e" transform="translate(63.623047 0)"/>
       <use xlink:href="#DejaVuSans-30" transform="translate(95.410156 0)"/>
      </g>
     </g>
    </g>
    <g id="xtick_14">
     <g id="line2d_26">
      <g>
       <use xlink:href="#mc59a7555b7" x="496.290909" y="178.931818" style="stroke: #000000; stroke-width: 0.8"/>
      </g>
     </g>
     <g id="text_19">
      <!-- 0.5 -->
      <g transform="translate(488.339347 193.530256) scale(0.1 -0.1)">
       <use xlink:href="#DejaVuSans-30"/>
       <use xlink:href="#DejaVuSans-2e" transform="translate(63.623047 0)"/>
       <use xlink:href="#DejaVuSans-35" transform="translate(95.410156 0)"/>
      </g>
     </g>
    </g>
    <g id="xtick_15">
     <g id="line2d_27">
      <g>
       <use xlink:href="#mc59a7555b7" x="531.756818" y="178.931818" style="stroke: #000000; stroke-width: 0.8"/>
      </g>
     </g>
     <g id="text_20">
      <!-- 1.0 -->
      <g transform="translate(523.805256 193.530256) scale(0.1 -0.1)">
       <use xlink:href="#DejaVuSans-31"/>
       <use xlink:href="#DejaVuSans-2e" transform="translate(63.623047 0)"/>
       <use xlink:href="#DejaVuSans-30" transform="translate(95.410156 0)"/>
      </g>
     </g>
    </g>
   </g>
   <g id="matplotlib.axis_6">
    <g id="ytick_11">
     <g id="line2d_28">
      <g>
       <use xlink:href="#m18263cf410" x="382.8" y="178.931818" style="stroke: #000000; stroke-width: 0.8"/>
      </g>
     </g>
    </g>
    <g id="ytick_12">
     <g id="line2d_29">
      <g>
       <use xlink:href="#m18263cf410" x="382.8" y="143.465909" style="stroke: #000000; stroke-width: 0.8"/>
      </g>
     </g>
    </g>
    <g id="ytick_13">
     <g id="line2d_30">
      <g>
       <use xlink:href="#m18263cf410" x="382.8" y="108" style="stroke: #000000; stroke-width: 0.8"/>
      </g>
     </g>
    </g>
    <g id="ytick_14">
     <g id="line2d_31">
      <g>
       <use xlink:href="#m18263cf410" x="382.8" y="72.534091" style="stroke: #000000; stroke-width: 0.8"/>
      </g>
     </g>
    </g>
    <g id="ytick_15">
     <g id="line2d_32">
      <g>
       <use xlink:href="#m18263cf410" x="382.8" y="37.068182" style="stroke: #000000; stroke-width: 0.8"/>
      </g>
     </g>
    </g>
   </g>
   <g id="line2d_33">
    <path d="M 391.589819 -1 
L 392.759114 0.840872 
L 394.19208 3.096854 
L 395.625046 5.352835 
L 397.058012 7.608817 
L 398.490978 9.864799 
L 399.923944 12.12078 
L 401.35691 14.376762 
L 402.789876 16.632744 
L 404.222842 18.888725 
L 405.655808 21.144707 
L 407.088774 23.400688 
L 408.52174 25.65667 
L 409.954706 27.912652 
L 411.387672 30.168633 
L 412.820638 32.424615 
L 414.253604 34.680597 
L 415.68657 36.936578 
L 417.119536 39.19256 
L 418.552502 41.448542 
L 419.985468 43.704523 
L 421.418434 45.960505 
L 422.8514 48.216486 
L 424.284366 50.472468 
L 425.717332 52.72845 
L 427.150298 54.984431 
L 428.583264 57.240413 
L 430.01623 59.496395 
L 431.449197 61.752376 
L 432.882163 64.008358 
L 434.315129 66.26434 
L 435.748095 68.520321 
L 437.181061 70.776303 
L 438.614027 73.032285 
L 440.046993 75.288266 
L 441.479959 77.544248 
L 442.912925 79.800229 
L 444.345891 82.056211 
L 445.778857 84.312193 
L 447.211823 86.568174 
L 448.644789 88.824156 
L 450.077755 91.080138 
L 451.510721 93.336119 
L 452.943687 95.592101 
L 454.376653 97.848083 
L 455.809619 100.104064 
L 457.242585 102.360046 
L 458.675551 104.616028 
L 460.108517 106.872009 
L 461.541483 109.127991 
L 462.974449 111.383972 
L 464.407415 113.639954 
L 465.840381 115.895936 
L 467.273347 118.151917 
L 468.706313 120.407899 
L 470.139279 122.663881 
L 471.572245 124.919862 
L 473.005211 127.175844 
L 474.438177 129.431826 
L 475.871143 131.687807 
L 477.304109 133.943789 
L 478.737075 136.199771 
L 480.170041 138.455752 
L 481.603007 140.711734 
L 483.035973 142.967715 
L 484.468939 145.223697 
L 485.901905 147.479679 
L 487.334871 149.73566 
L 488.767837 151.991642 
L 490.200803 154.247624 
L 491.63377 156.503605 
L 493.066736 158.759587 
L 494.499702 161.015569 
L 495.932668 163.27155 
L 497.365634 165.527532 
L 498.7986 167.783514 
L 500.231566 170.039495 
L 501.664532 172.295477 
L 503.097498 174.551458 
L 504.530464 176.80744 
L 505.96343 179.063422 
L 507.396396 181.319403 
L 508.829362 183.575385 
L 510.262328 185.831367 
L 511.695294 188.087348 
L 513.12826 190.34333 
L 514.561226 192.599312 
L 515.994192 194.855293 
L 517.427158 197.111275 
L 518.860124 199.367256 
L 520.29309 201.623238 
L 521.726056 203.87922 
L 523.159022 206.135201 
L 524.591988 208.391183 
L 526.024954 210.647165 
L 527.45792 212.903146 
L 528.890886 215.159128 
L 530.060181 217 
" clip-path="url(#p8dd93a95f0)" style="fill: none; stroke: #000000; stroke-width: 1.5; stroke-linecap: square"/>
   </g>
   <g id="patch_13">
    <path d="M 382.8 178.931818 
L 382.8 37.068182 
" style="fill: none; stroke: #000000; stroke-width: 0.8; stroke-linejoin: miter; stroke-linecap: square"/>
   </g>
   <g id="patch_14">
    <path d="M 538.85 178.931818 
L 538.85 37.068182 
" style="fill: none; stroke: #000000; stroke-width: 0.8; stroke-linejoin: miter; stroke-linecap: square"/>
   </g>
   <g id="patch_15">
    <path d="M 382.8 178.931818 
L 538.85 178.931818 
" style="fill: none; stroke: #000000; stroke-width: 0.8; stroke-linejoin: miter; stroke-linecap: square"/>
   </g>
   <g id="patch_16">
    <path d="M 382.8 37.068182 
L 538.85 37.068182 
" style="fill: none; stroke: #000000; stroke-width: 0.8; stroke-linejoin: miter; stroke-linecap: square"/>
   </g>
  </g>
  <g id="axes_4">
   <g id="patch_17">
    <path d="M 553.15 178.931818 
L 709.2 178.931818 
L 709.2 37.068182 
L 553.15 37.068182 
z
" style="fill: #ffffff"/>
   </g>
   <g id="PathCollection_4">
    <path d="M 697.155525 169.045265 
L 700.317803 165.882987 
M 697.155525 165.882987 
L 700.317803 169.045265 
" clip-path="url(#pe375beaa6a)" style="fill: #ff0000; stroke: #ff0000; stroke-width: 1.5"/>
    <path d="M 644.82375 127.103201 
L 647.986028 123.940923 
M 644.82375 123.940923 
L 647.986028 127.103201 
" clip-path="url(#pe375beaa6a)" style="fill: #ff0000; stroke: #ff0000; stroke-width: 1.5"/>
    <path d="M 672.422664 155.753806 
L 675.584942 152.591529 
M 672.422664 152.591529 
L 675.584942 155.753806 
" clip-path="url(#pe375beaa6a)" style="fill: #ff0000; stroke: #ff0000; stroke-width: 1.5"/>
    <path d="M 682.315393 103.347452 
L 685.47767 100.185174 
M 682.315393 100.185174 
L 685.47767 103.347452 
" clip-path="url(#pe375beaa6a)" style="fill: #ff0000; stroke: #ff0000; stroke-width: 1.5"/>
    <path d="M 686.653555 112.822223 
L 689.815833 109.659945 
M 686.653555 109.659945 
L 689.815833 112.822223 
" clip-path="url(#pe375beaa6a)" style="fill: #ff0000; stroke: #ff0000; stroke-width: 1.5"/>
    <path d="M 619.73381 68.590107 
L 622.896088 65.427829 
M 619.73381 65.427829 
L 622.896088 68.590107 
" clip-path="url(#pe375beaa6a)" style="fill: #0000ff; stroke: #0000ff; stroke-width: 1.5"/>
    <path d="M 698.277566 128.062312 
L 701.439844 124.900034 
M 698.277566 124.900034 
L 701.439844 128.062312 
" clip-path="url(#pe375beaa6a)" style="fill: #ff0000; stroke: #ff0000; stroke-width: 1.5"/>
    <path d="M 696.118383 48.717895 
L 699.280661 45.555618 
M 696.118383 45.555618 
L 699.280661 48.717895 
" clip-path="url(#pe375beaa6a)" style="fill: #ff0000; stroke: #ff0000; stroke-width: 1.5"/>
    <path d="M 583.870159 94.139053 
L 587.032437 90.976775 
M 583.870159 90.976775 
L 587.032437 94.139053 
" clip-path="url(#pe375beaa6a)" style="fill: #0000ff; stroke: #0000ff; stroke-width: 1.5"/>
    <path d="M 658.656719 46.763399 
L 661.818997 43.601121 
M 658.656719 43.601121 
L 661.818997 46.763399 
" clip-path="url(#pe375beaa6a)" style="fill: #ff0000; stroke: #ff0000; stroke-width: 1.5"/>
    <path d="M 653.094625 161.58895 
L 656.256902 158.426672 
M 653.094625 158.426672 
L 656.256902 161.58895 
" clip-path="url(#pe375beaa6a)" style="fill: #ff0000; stroke: #ff0000; stroke-width: 1.5"/>
    <path d="M 629.291351 110.486252 
L 632.453629 107.323975 
M 629.291351 107.323975 
L 632.453629 110.486252 
" clip-path="url(#pe375beaa6a)" style="fill: #0000ff; stroke: #0000ff; stroke-width: 1.5"/>
    <path d="M 629.625949 44.524988 
L 632.788227 41.36271 
M 629.625949 41.36271 
L 632.788227 44.524988 
" clip-path="url(#pe375beaa6a)" style="fill: #ff0000; stroke: #ff0000; stroke-width: 1.5"/>
    <path d="M 608.305435 148.767968 
L 611.467713 145.605691 
M 608.305435 145.605691 
L 611.467713 148.767968 
" clip-path="url(#pe375beaa6a)" style="fill: #0000ff; stroke: #0000ff; stroke-width: 1.5"/>
    <path d="M 632.727204 89.554118 
L 635.889481 86.391841 
M 632.727204 86.391841 
L 635.889481 89.554118 
" clip-path="url(#pe375beaa6a)" style="fill: #ff0000; stroke: #ff0000; stroke-width: 1.5"/>
    <path d="M 691.887185 97.946079 
L 695.049462 94.783801 
M 691.887185 94.783801 
L 695.049462 97.946079 
" clip-path="url(#pe375beaa6a)" style="fill: #ff0000; stroke: #ff0000; stroke-width: 1.5"/>
    <path d="M 596.657862 48.611738 
L 599.820139 45.44946 
M 596.657862 45.44946 
L 599.820139 48.611738 
" clip-path="url(#pe375beaa6a)" style="fill: #0000ff; stroke: #0000ff; stroke-width: 1.5"/>
    <path d="M 628.41998 84.641389 
L 631.582258 81.479111 
M 628.41998 81.479111 
L 631.582258 84.641389 
" clip-path="url(#pe375beaa6a)" style="fill: #0000ff; stroke: #0000ff; stroke-width: 1.5"/>
    <path d="M 626.194654 149.731381 
L 629.356932 146.569104 
M 626.194654 146.569104 
L 629.356932 149.731381 
" clip-path="url(#pe375beaa6a)" style="fill: #0000ff; stroke: #0000ff; stroke-width: 1.5"/>
    <path d="M 656.909994 71.188514 
L 660.072272 68.026237 
M 656.909994 68.026237 
L 660.072272 71.188514 
" clip-path="url(#pe375beaa6a)" style="fill: #ff0000; stroke: #ff0000; stroke-width: 1.5"/>
    <path d="M 585.727994 115.267599 
L 588.890272 112.105321 
M 585.727994 112.105321 
L 588.890272 115.267599 
" clip-path="url(#pe375beaa6a)" style="fill: #0000ff; stroke: #0000ff; stroke-width: 1.5"/>
    <path d="M 609.990443 156.292604 
L 613.152721 153.130326 
M 609.990443 153.130326 
L 613.152721 156.292604 
" clip-path="url(#pe375beaa6a)" style="fill: #0000ff; stroke: #0000ff; stroke-width: 1.5"/>
    <path d="M 590.063794 43.968156 
L 593.226072 40.805878 
M 590.063794 40.805878 
L 593.226072 43.968156 
" clip-path="url(#pe375beaa6a)" style="fill: #0000ff; stroke: #0000ff; stroke-width: 1.5"/>
    <path d="M 684.10114 126.279648 
L 687.263418 123.117371 
M 684.10114 123.117371 
L 687.263418 126.279648 
" clip-path="url(#pe375beaa6a)" style="fill: #ff0000; stroke: #ff0000; stroke-width: 1.5"/>
    <path d="M 663.566406 174.559219 
L 666.728684 171.396941 
M 663.566406 171.396941 
L 666.728684 174.559219 
" clip-path="url(#pe375beaa6a)" style="fill: #ff0000; stroke: #ff0000; stroke-width: 1.5"/>
    <path d="M 688.475385 104.307947 
L 691.637663 101.145669 
M 688.475385 101.145669 
L 691.637663 104.307947 
" clip-path="url(#pe375beaa6a)" style="fill: #ff0000; stroke: #ff0000; stroke-width: 1.5"/>
    <path d="M 675.028216 141.367352 
L 678.190494 138.205075 
M 675.028216 138.205075 
L 678.190494 141.367352 
" clip-path="url(#pe375beaa6a)" style="fill: #ff0000; stroke: #ff0000; stroke-width: 1.5"/>
    <path d="M 612.020335 131.138209 
L 615.182613 127.975932 
M 612.020335 127.975932 
L 615.182613 131.138209 
" clip-path="url(#pe375beaa6a)" style="fill: #0000ff; stroke: #0000ff; stroke-width: 1.5"/>
    <path d="M 696.61587 119.588216 
L 699.778148 116.425939 
M 696.61587 116.425939 
L 699.778148 119.588216 
" clip-path="url(#pe375beaa6a)" style="fill: #ff0000; stroke: #ff0000; stroke-width: 1.5"/>
    <path d="M 629.550272 44.89431 
L 632.71255 41.732032 
M 629.550272 41.732032 
L 632.71255 44.89431 
" clip-path="url(#pe375beaa6a)" style="fill: #ff0000; stroke: #ff0000; stroke-width: 1.5"/>
    <path d="M 686.792653 124.47533 
L 689.954931 121.313052 
M 686.792653 121.313052 
L 689.954931 124.47533 
" clip-path="url(#pe375beaa6a)" style="fill: #ff0000; stroke: #ff0000; stroke-width: 1.5"/>
    <path d="M 602.264955 66.022202 
L 605.427233 62.859924 
M 602.264955 62.859924 
L 605.427233 66.022202 
" clip-path="url(#pe375beaa6a)" style="fill: #0000ff; stroke: #0000ff; stroke-width: 1.5"/>
    <path d="M 573.908354 124.875612 
L 577.070631 121.713334 
M 573.908354 121.713334 
L 577.070631 124.875612 
" clip-path="url(#pe375beaa6a)" style="fill: #0000ff; stroke: #0000ff; stroke-width: 1.5"/>
    <path d="M 682.996131 50.332867 
L 686.158409 47.17059 
M 682.996131 47.17059 
L 686.158409 50.332867 
" clip-path="url(#pe375beaa6a)" style="fill: #ff0000; stroke: #ff0000; stroke-width: 1.5"/>
    <path d="M 591.783835 169.34543 
L 594.946113 166.183153 
M 591.783835 166.183153 
L 594.946113 169.34543 
" clip-path="url(#pe375beaa6a)" style="fill: #0000ff; stroke: #0000ff; stroke-width: 1.5"/>
    <path d="M 670.41193 92.30526 
L 673.574208 89.142982 
M 670.41193 89.142982 
L 673.574208 92.30526 
" clip-path="url(#pe375beaa6a)" style="fill: #ff0000; stroke: #ff0000; stroke-width: 1.5"/>
    <path d="M 592.35534 108.745109 
L 595.517618 105.582831 
M 592.35534 105.582831 
L 595.517618 108.745109 
" clip-path="url(#pe375beaa6a)" style="fill: #0000ff; stroke: #0000ff; stroke-width: 1.5"/>
    <path d="M 568.793692 81.196024 
L 571.955969 78.033746 
M 568.793692 78.033746 
L 571.955969 81.196024 
" clip-path="url(#pe375beaa6a)" style="fill: #0000ff; stroke: #0000ff; stroke-width: 1.5"/>
    <path d="M 633.385232 80.549049 
L 636.547509 77.386771 
M 633.385232 77.386771 
L 636.547509 80.549049 
" clip-path="url(#pe375beaa6a)" style="fill: #ff0000; stroke: #ff0000; stroke-width: 1.5"/>
    <path d="M 571.170071 89.037153 
L 574.332349 85.874875 
M 571.170071 85.874875 
L 574.332349 89.037153 
" clip-path="url(#pe375beaa6a)" style="fill: #0000ff; stroke: #0000ff; stroke-width: 1.5"/>
    <path d="M 611.199238 109.679228 
L 614.361516 106.516951 
M 611.199238 106.516951 
L 614.361516 109.679228 
" clip-path="url(#pe375beaa6a)" style="fill: #0000ff; stroke: #0000ff; stroke-width: 1.5"/>
    <path d="M 606.25481 90.559137 
L 609.417088 87.396859 
M 606.25481 87.396859 
L 609.417088 90.559137 
" clip-path="url(#pe375beaa6a)" style="fill: #0000ff; stroke: #0000ff; stroke-width: 1.5"/>
    <path d="M 639.277606 92.966814 
L 642.439883 89.804536 
M 639.277606 89.804536 
L 642.439883 92.966814 
" clip-path="url(#pe375beaa6a)" style="fill: #ff0000; stroke: #ff0000; stroke-width: 1.5"/>
    <path d="M 567.653306 148.573551 
L 570.815584 145.411273 
M 567.653306 145.411273 
L 570.815584 148.573551 
" clip-path="url(#pe375beaa6a)" style="fill: #0000ff; stroke: #0000ff; stroke-width: 1.5"/>
    <path d="M 568.862685 126.13693 
L 572.024963 122.974653 
M 568.862685 122.974653 
L 572.024963 126.13693 
" clip-path="url(#pe375beaa6a)" style="fill: #0000ff; stroke: #0000ff; stroke-width: 1.5"/>
    <path d="M 626.899657 164.57572 
L 630.061935 161.413443 
M 626.899657 161.413443 
L 630.061935 164.57572 
" clip-path="url(#pe375beaa6a)" style="fill: #0000ff; stroke: #0000ff; stroke-width: 1.5"/>
    <path d="M 653.368658 111.374755 
L 656.530936 108.212478 
M 653.368658 108.212478 
L 656.530936 111.374755 
" clip-path="url(#pe375beaa6a)" style="fill: #ff0000; stroke: #ff0000; stroke-width: 1.5"/>
    <path d="M 629.640635 95.75428 
L 632.802913 92.592003 
M 629.640635 92.592003 
L 632.802913 95.75428 
" clip-path="url(#pe375beaa6a)" style="fill: #ff0000; stroke: #ff0000; stroke-width: 1.5"/>
    <path d="M 691.287292 96.974432 
L 694.449569 93.812154 
M 691.287292 93.812154 
L 694.449569 96.974432 
" clip-path="url(#pe375beaa6a)" style="fill: #ff0000; stroke: #ff0000; stroke-width: 1.5"/>
    <path d="M 571.923819 159.7343 
L 575.086097 156.572022 
M 571.923819 156.572022 
L 575.086097 159.7343 
" clip-path="url(#pe375beaa6a)" style="fill: #0000ff; stroke: #0000ff; stroke-width: 1.5"/>
    <path d="M 657.100245 134.745305 
L 660.262523 131.583028 
M 657.100245 131.583028 
L 660.262523 134.745305 
" clip-path="url(#pe375beaa6a)" style="fill: #ff0000; stroke: #ff0000; stroke-width: 1.5"/>
    <path d="M 665.809835 108.071879 
L 668.972113 104.909602 
M 665.809835 104.909602 
L 668.972113 108.071879 
" clip-path="url(#pe375beaa6a)" style="fill: #ff0000; stroke: #ff0000; stroke-width: 1.5"/>
    <path d="M 612.526041 75.612077 
L 615.688319 72.449799 
M 612.526041 72.449799 
L 615.688319 75.612077 
" clip-path="url(#pe375beaa6a)" style="fill: #0000ff; stroke: #0000ff; stroke-width: 1.5"/>
    <path d="M 584.620366 140.108406 
L 587.782643 136.946128 
M 584.620366 136.946128 
L 587.782643 140.108406 
" clip-path="url(#pe375beaa6a)" style="fill: #0000ff; stroke: #0000ff; stroke-width: 1.5"/>
    <path d="M 600.07783 121.594429 
L 603.240107 118.432152 
M 600.07783 118.432152 
L 603.240107 121.594429 
" clip-path="url(#pe375beaa6a)" style="fill: #0000ff; stroke: #0000ff; stroke-width: 1.5"/>
    <path d="M 687.348512 65.24313 
L 690.51079 62.080853 
M 687.348512 62.080853 
L 690.51079 65.24313 
" clip-path="url(#pe375beaa6a)" style="fill: #ff0000; stroke: #ff0000; stroke-width: 1.5"/>
    <path d="M 675.217687 90.975742 
L 678.379965 87.813465 
M 675.217687 87.813465 
L 678.379965 90.975742 
" clip-path="url(#pe375beaa6a)" style="fill: #ff0000; stroke: #ff0000; stroke-width: 1.5"/>
    <path d="M 559.827285 139.921082 
L 562.989563 136.758804 
M 559.827285 136.758804 
L 562.989563 139.921082 
" clip-path="url(#pe375beaa6a)" style="fill: #0000ff; stroke: #0000ff; stroke-width: 1.5"/>
    <path d="M 629.849131 53.054899 
L 633.011409 49.892621 
M 629.849131 49.892621 
L 633.011409 53.054899 
" clip-path="url(#pe375beaa6a)" style="fill: #ff0000; stroke: #ff0000; stroke-width: 1.5"/>
    <path d="M 610.268973 102.408589 
L 613.431251 99.246312 
M 610.268973 99.246312 
L 613.431251 102.408589 
" clip-path="url(#pe375beaa6a)" style="fill: #0000ff; stroke: #0000ff; stroke-width: 1.5"/>
    <path d="M 679.039699 132.079791 
L 682.201977 128.917513 
M 679.039699 128.917513 
L 682.201977 132.079791 
" clip-path="url(#pe375beaa6a)" style="fill: #ff0000; stroke: #ff0000; stroke-width: 1.5"/>
    <path d="M 664.78666 96.100233 
L 667.948937 92.937955 
M 664.78666 92.937955 
L 667.948937 96.100233 
" clip-path="url(#pe375beaa6a)" style="fill: #ff0000; stroke: #ff0000; stroke-width: 1.5"/>
    <path d="M 633.187536 91.168528 
L 636.349813 88.00625 
M 633.187536 88.00625 
L 636.349813 91.168528 
" clip-path="url(#pe375beaa6a)" style="fill: #ff0000; stroke: #ff0000; stroke-width: 1.5"/>
    <path d="M 627.445332 164.48626 
L 630.60761 161.323982 
M 627.445332 161.323982 
L 630.60761 164.48626 
" clip-path="url(#pe375beaa6a)" style="fill: #0000ff; stroke: #0000ff; stroke-width: 1.5"/>
    <path d="M 685.900359 42.943145 
L 689.062636 39.780868 
M 685.900359 39.780868 
L 689.062636 42.943145 
" clip-path="url(#pe375beaa6a)" style="fill: #ff0000; stroke: #ff0000; stroke-width: 1.5"/>
    <path d="M 676.857669 130.322757 
L 680.019947 127.160479 
M 676.857669 127.160479 
L 680.019947 130.322757 
" clip-path="url(#pe375beaa6a)" style="fill: #ff0000; stroke: #ff0000; stroke-width: 1.5"/>
    <path d="M 648.591491 71.169702 
L 651.753769 68.007424 
M 648.591491 68.007424 
L 651.753769 71.169702 
" clip-path="url(#pe375beaa6a)" style="fill: #ff0000; stroke: #ff0000; stroke-width: 1.5"/>
    <path d="M 567.492683 68.519369 
L 570.65496 65.357092 
M 567.492683 65.357092 
L 570.65496 68.519369 
" clip-path="url(#pe375beaa6a)" style="fill: #0000ff; stroke: #0000ff; stroke-width: 1.5"/>
    <path d="M 570.705479 47.18608 
L 573.867757 44.023803 
M 570.705479 44.023803 
L 573.867757 47.18608 
" clip-path="url(#pe375beaa6a)" style="fill: #0000ff; stroke: #0000ff; stroke-width: 1.5"/>
    <path d="M 592.916648 43.878113 
L 596.078925 40.715836 
M 592.916648 40.715836 
L 596.078925 43.878113 
" clip-path="url(#pe375beaa6a)" style="fill: #0000ff; stroke: #0000ff; stroke-width: 1.5"/>
   </g>
   <g id="matplotlib.axis_7">
    <g id="xtick_16">
     <g id="line2d_34">
      <g>
       <use xlink:href="#mc59a7555b7" x="560.243182" y="178.931818" style="stroke: #000000; stroke-width: 0.8"/>
      </g>
     </g>
     <g id="text_21">
      <!-- −1.0 -->
      <g transform="translate(548.101776 193.530256) scale(0.1 -0.1)">
       <use xlink:href="#DejaVuSans-2212"/>
       <use xlink:href="#DejaVuSans-31" transform="translate(83.789062 0)"/>
       <use xlink:href="#DejaVuSans-2e" transform="translate(147.412109 0)"/>
       <use xlink:href="#DejaVuSans-30" transform="translate(179.199219 0)"/>
      </g>
     </g>
    </g>
    <g id="xtick_17">
     <g id="line2d_35">
      <g>
       <use xlink:href="#mc59a7555b7" x="595.709091" y="178.931818" style="stroke: #000000; stroke-width: 0.8"/>
      </g>
     </g>
     <g id="text_22">
      <!-- −0.5 -->
      <g transform="translate(583.567685 193.530256) scale(0.1 -0.1)">
       <use xlink:href="#DejaVuSans-2212"/>
       <use xlink:href="#DejaVuSans-30" transform="translate(83.789062 0)"/>
       <use xlink:href="#DejaVuSans-2e" transform="translate(147.412109 0)"/>
       <use xlink:href="#DejaVuSans-35" transform="translate(179.199219 0)"/>
      </g>
     </g>
    </g>
    <g id="xtick_18">
     <g id="line2d_36">
      <g>
       <use xlink:href="#mc59a7555b7" x="631.175" y="178.931818" style="stroke: #000000; stroke-width: 0.8"/>
      </g>
     </g>
     <g id="text_23">
      <!-- 0.0 -->
      <g transform="translate(623.223438 193.530256) scale(0.1 -0.1)">
       <use xlink:href="#DejaVuSans-30"/>
       <use xlink:href="#DejaVuSans-2e" transform="translate(63.623047 0)"/>
       <use xlink:href="#DejaVuSans-30" transform="translate(95.410156 0)"/>
      </g>
     </g>
    </g>
    <g id="xtick_19">
     <g id="line2d_37">
      <g>
       <use xlink:href="#mc59a7555b7" x="666.640909" y="178.931818" style="stroke: #000000; stroke-width: 0.8"/>
      </g>
     </g>
     <g id="text_24">
      <!-- 0.5 -->
      <g transform="translate(658.689347 193.530256) scale(0.1 -0.1)">
       <use xlink:href="#DejaVuSans-30"/>
       <use xlink:href="#DejaVuSans-2e" transform="translate(63.623047 0)"/>
       <use xlink:href="#DejaVuSans-35" transform="translate(95.410156 0)"/>
      </g>
     </g>
    </g>
    <g id="xtick_20">
     <g id="line2d_38">
      <g>
       <use xlink:href="#mc59a7555b7" x="702.106818" y="178.931818" style="stroke: #000000; stroke-width: 0.8"/>
      </g>
     </g>
     <g id="text_25">
      <!-- 1.0 -->
      <g transform="translate(694.155256 193.530256) scale(0.1 -0.1)">
       <use xlink:href="#DejaVuSans-31"/>
       <use xlink:href="#DejaVuSans-2e" transform="translate(63.623047 0)"/>
       <use xlink:href="#DejaVuSans-30" transform="translate(95.410156 0)"/>
      </g>
     </g>
    </g>
   </g>
   <g id="matplotlib.axis_8">
    <g id="ytick_16">
     <g id="line2d_39">
      <g>
       <use xlink:href="#m18263cf410" x="553.15" y="178.931818" style="stroke: #000000; stroke-width: 0.8"/>
      </g>
     </g>
    </g>
    <g id="ytick_17">
     <g id="line2d_40">
      <g>
       <use xlink:href="#m18263cf410" x="553.15" y="143.465909" style="stroke: #000000; stroke-width: 0.8"/>
      </g>
     </g>
    </g>
    <g id="ytick_18">
     <g id="line2d_41">
      <g>
       <use xlink:href="#m18263cf410" x="553.15" y="108" style="stroke: #000000; stroke-width: 0.8"/>
      </g>
     </g>
    </g>
    <g id="ytick_19">
     <g id="line2d_42">
      <g>
       <use xlink:href="#m18263cf410" x="553.15" y="72.534091" style="stroke: #000000; stroke-width: 0.8"/>
      </g>
     </g>
    </g>
    <g id="ytick_20">
     <g id="line2d_43">
      <g>
       <use xlink:href="#m18263cf410" x="553.15" y="37.068182" style="stroke: #000000; stroke-width: 0.8"/>
      </g>
     </g>
    </g>
   </g>
   <g id="line2d_44">
    <path d="M 628.388212 -1 
L 629.025551 23.928309 
L 630.458517 79.976103 
L 631.891483 136.023897 
L 633.324449 192.071691 
L 633.961788 217 
" clip-path="url(#pe375beaa6a)" style="fill: none; stroke: #000000; stroke-width: 1.5; stroke-linecap: square"/>
   </g>
   <g id="patch_18">
    <path d="M 553.15 178.931818 
L 553.15 37.068182 
" style="fill: none; stroke: #000000; stroke-width: 0.8; stroke-linejoin: miter; stroke-linecap: square"/>
   </g>
   <g id="patch_19">
    <path d="M 709.2 178.931818 
L 709.2 37.068182 
" style="fill: none; stroke: #000000; stroke-width: 0.8; stroke-linejoin: miter; stroke-linecap: square"/>
   </g>
   <g id="patch_20">
    <path d="M 553.15 178.931818 
L 709.2 178.931818 
" style="fill: none; stroke: #000000; stroke-width: 0.8; stroke-linejoin: miter; stroke-linecap: square"/>
   </g>
   <g id="patch_21">
    <path d="M 553.15 37.068182 
L 709.2 37.068182 
" style="fill: none; stroke: #000000; stroke-width: 0.8; stroke-linejoin: miter; stroke-linecap: square"/>
   </g>
  </g>
 </g>
 <defs>
  <clipPath id="p275c0a15fb">
   <rect x="42.1" y="37.068182" width="156.05" height="141.863636"/>
  </clipPath>
  <clipPath id="pc33fc6f184">
   <rect x="212.45" y="37.068182" width="156.05" height="141.863636"/>
  </clipPath>
  <clipPath id="p8dd93a95f0">
   <rect x="382.8" y="37.068182" width="156.05" height="141.863636"/>
  </clipPath>
  <clipPath id="pe375beaa6a">
   <rect x="553.15" y="37.068182" width="156.05" height="141.863636"/>
  </clipPath>
 </defs>
</svg>
